<?xml version="1.0" encoding="UTF-8" standalone="no"?><svg xmlns="http://www.w3.org/2000/svg" xmlns:xlink="http://www.w3.org/1999/xlink" contentScriptType="application/ecmascript" contentStyleType="text/css" height="504px" preserveAspectRatio="none" style="width:429px;height:504px;background:#FFFFFF;" version="1.1" viewBox="0 0 429 504" width="429px" zoomAndPan="magnify"><defs><filter height="300%" id="fnb01p4q3qg8x" width="300%" x="-1" y="-1"><feGaussianBlur result="blurOut" stdDeviation="2.0"/><feColorMatrix in="blurOut" result="blurOut2" type="matrix" values="0 0 0 0 0 0 0 0 0 0 0 0 0 0 0 0 0 0 .4 0"/><feOffset dx="4.0" dy="4.0" in="blurOut2" result="blurOut3"/><feBlend in="SourceGraphic" in2="blurOut3" mode="normal"/></filter></defs><g><rect fill="#B3FFD7" filter="url(#fnb01p4q3qg8x)" height="29.1328" style="stroke:#000000;stroke-width:1.0;" width="10" x="283.5" y="95.5625"/><rect fill="#B3FFD7" filter="url(#fnb01p4q3qg8x)" height="29.1328" style="stroke:#000000;stroke-width:1.0;" width="10" x="283.5" y="227.0938"/><rect fill="#B3FFD7" filter="url(#fnb01p4q3qg8x)" height="29.1328" style="stroke:#000000;stroke-width:1.0;" width="10" x="372" y="400.7578"/><rect fill="#FFFFFF" filter="url(#fnb01p4q3qg8x)" height="117.5313" style="stroke:#000000;stroke-width:2.0;" width="339" x="10" y="57.2969"/><rect fill="#FFFFFF" filter="url(#fnb01p4q3qg8x)" height="159.6641" style="stroke:#000000;stroke-width:2.0;" width="339" x="10" y="188.8281"/><rect fill="#FFFFFF" filter="url(#fnb01p4q3qg8x)" height="117.5313" style="stroke:#000000;stroke-width:2.0;" width="405" x="10" y="362.4922"/><line style="stroke:#000000;stroke-width:1.0;stroke-dasharray:5.0,5.0;" x1="53" x2="53" y1="40.2969" y2="497.0234"/><line style="stroke:#000000;stroke-width:1.0;stroke-dasharray:5.0,5.0;" x1="288" x2="288" y1="40.2969" y2="497.0234"/><line style="stroke:#000000;stroke-width:1.0;stroke-dasharray:5.0,5.0;" x1="377" x2="377" y1="40.2969" y2="497.0234"/><rect fill="#C9F4FF" filter="url(#fnb01p4q3qg8x)" height="30.2969" style="stroke:#000000;stroke-width:1.5;" width="63" x="20" y="5"/><text fill="#000000" font-family="sans-serif" font-size="14" lengthAdjust="spacing" textLength="49" x="27" y="24.9951">Viewer</text><rect fill="#C9F4FF" filter="url(#fnb01p4q3qg8x)" height="30.2969" style="stroke:#000000;stroke-width:1.5;" width="97" x="238" y="5"/><text fill="#000000" font-family="sans-serif" font-size="14" lengthAdjust="spacing" textLength="83" x="245" y="24.9951">FHIR Server</text><rect fill="#C9F4FF" filter="url(#fnb01p4q3qg8x)" height="30.2969" style="stroke:#000000;stroke-width:1.5;" width="52" x="349" y="5"/><text fill="#000000" font-family="sans-serif" font-size="14" lengthAdjust="spacing" textLength="38" x="356" y="24.9951">PACS</text><rect fill="#B3FFD7" filter="url(#fnb01p4q3qg8x)" height="29.1328" style="stroke:#000000;stroke-width:1.0;" width="10" x="283.5" y="95.5625"/><rect fill="#B3FFD7" filter="url(#fnb01p4q3qg8x)" height="29.1328" style="stroke:#000000;stroke-width:1.0;" width="10" x="283.5" y="227.0938"/><rect fill="#B3FFD7" filter="url(#fnb01p4q3qg8x)" height="29.1328" style="stroke:#000000;stroke-width:1.0;" width="10" x="372" y="400.7578"/><path d="M10,57.2969 L90,57.2969 L90,64.2969 L80,74.2969 L10,74.2969 L10,57.2969 " fill="#EEEEEE" style="stroke:#000000;stroke-width:1.0;"/><rect fill="none" height="117.5313" style="stroke:#000000;stroke-width:2.0;" width="339" x="10" y="57.2969"/><text fill="#000000" font-family="sans-serif" font-size="13" font-weight="bold" lengthAdjust="spacing" textLength="35" x="25" y="70.3638">FHIR</text><polygon fill="#005500" points="271.5,91.5625,281.5,95.5625,271.5,99.5625,275.5,95.5625" style="stroke:#005500;stroke-width:1.0;"/><line style="stroke:#005500;stroke-width:1.0;" x1="53.5" x2="277.5" y1="95.5625" y2="95.5625"/><text fill="#000000" font-family="sans-serif" font-size="13" lengthAdjust="spacing" textLength="210" x="63.5" y="90.4966">FHIR GET ImagingStudy resource</text><polygon fill="#005500" points="64.5,120.6953,54.5,124.6953,64.5,128.6953,60.5,124.6953" style="stroke:#005500;stroke-width:1.0;"/><line style="stroke:#005500;stroke-width:1.0;" x1="58.5" x2="287.5" y1="124.6953" y2="124.6953"/><text fill="#000000" font-family="sans-serif" font-size="13" lengthAdjust="spacing" textLength="195" x="73.5" y="119.6294">Return ImagingStudy resource</text><line style="stroke:#005500;stroke-width:1.0;" x1="53.5" x2="95.5" y1="153.8281" y2="153.8281"/><line style="stroke:#005500;stroke-width:1.0;" x1="95.5" x2="95.5" y1="153.8281" y2="166.8281"/><line style="stroke:#005500;stroke-width:1.0;" x1="54.5" x2="95.5" y1="166.8281" y2="166.8281"/><polygon fill="#005500" points="64.5,162.8281,54.5,166.8281,64.5,170.8281,60.5,166.8281" style="stroke:#005500;stroke-width:1.0;"/><text fill="#000000" font-family="sans-serif" font-size="13" lengthAdjust="spacing" textLength="145" x="60.5" y="148.7622">Check return code 200</text><path d="M10,188.8281 L90,188.8281 L90,195.8281 L80,205.8281 L10,205.8281 L10,188.8281 " fill="#EEEEEE" style="stroke:#000000;stroke-width:1.0;"/><rect fill="none" height="159.6641" style="stroke:#000000;stroke-width:2.0;" width="339" x="10" y="188.8281"/><text fill="#000000" font-family="sans-serif" font-size="13" font-weight="bold" lengthAdjust="spacing" textLength="35" x="25" y="201.895">FHIR</text><polygon fill="#005500" points="271.5,223.0938,281.5,227.0938,271.5,231.0938,275.5,227.0938" style="stroke:#005500;stroke-width:1.0;"/><line style="stroke:#005500;stroke-width:1.0;" x1="53.5" x2="277.5" y1="227.0938" y2="227.0938"/><text fill="#000000" font-family="sans-serif" font-size="13" lengthAdjust="spacing" textLength="178" x="79.5" y="222.0278">FHIR GET Endpoint resource</text><polygon fill="#005500" points="64.5,252.2266,54.5,256.2266,64.5,260.2266,60.5,256.2266" style="stroke:#005500;stroke-width:1.0;"/><line style="stroke:#005500;stroke-width:1.0;" x1="58.5" x2="287.5" y1="256.2266" y2="256.2266"/><text fill="#000000" font-family="sans-serif" font-size="13" lengthAdjust="spacing" textLength="163" x="89.5" y="251.1606">Return Endpoint resource</text><line style="stroke:#005500;stroke-width:1.0;" x1="53.5" x2="95.5" y1="285.3594" y2="285.3594"/><line style="stroke:#005500;stroke-width:1.0;" x1="95.5" x2="95.5" y1="285.3594" y2="298.3594"/><line style="stroke:#005500;stroke-width:1.0;" x1="54.5" x2="95.5" y1="298.3594" y2="298.3594"/><polygon fill="#005500" points="64.5,294.3594,54.5,298.3594,64.5,302.3594,60.5,298.3594" style="stroke:#005500;stroke-width:1.0;"/><text fill="#000000" font-family="sans-serif" font-size="13" lengthAdjust="spacing" textLength="145" x="60.5" y="280.2935">Check return code 200</text><line style="stroke:#005500;stroke-width:1.0;" x1="53.5" x2="95.5" y1="327.4922" y2="327.4922"/><line style="stroke:#005500;stroke-width:1.0;" x1="95.5" x2="95.5" y1="327.4922" y2="340.4922"/><line style="stroke:#005500;stroke-width:1.0;" x1="54.5" x2="95.5" y1="340.4922" y2="340.4922"/><polygon fill="#005500" points="64.5,336.4922,54.5,340.4922,64.5,344.4922,60.5,340.4922" style="stroke:#005500;stroke-width:1.0;"/><text fill="#000000" font-family="sans-serif" font-size="13" lengthAdjust="spacing" textLength="221" x="60.5" y="322.4263">Check Endpoint/address notEmpty</text><path d="M10,362.4922 L137,362.4922 L137,369.4922 L127,379.4922 L10,379.4922 L10,362.4922 " fill="#EEEEEE" style="stroke:#000000;stroke-width:1.0;"/><rect fill="none" height="117.5313" style="stroke:#000000;stroke-width:2.0;" width="405" x="10" y="362.4922"/><text fill="#000000" font-family="sans-serif" font-size="13" font-weight="bold" lengthAdjust="spacing" textLength="82" x="25" y="375.5591">DICOMWeb</text><polygon fill="#005500" points="360,396.7578,370,400.7578,360,404.7578,364,400.7578" style="stroke:#005500;stroke-width:1.0;"/><line style="stroke:#005500;stroke-width:1.0;" x1="53.5" x2="366" y1="400.7578" y2="400.7578"/><text fill="#000000" font-family="sans-serif" font-size="13" lengthAdjust="spacing" textLength="252" x="86.75" y="395.6919">WADO GET study DICOM objects binary</text><polygon fill="#005500" points="64.5,425.8906,54.5,429.8906,64.5,433.8906,60.5,429.8906" style="stroke:#005500;stroke-width:1.0;"/><line style="stroke:#005500;stroke-width:1.0;" x1="58.5" x2="376" y1="429.8906" y2="429.8906"/><text fill="#000000" font-family="sans-serif" font-size="13" lengthAdjust="spacing" textLength="43" x="193.75" y="424.8247">Return</text><line style="stroke:#005500;stroke-width:1.0;" x1="53.5" x2="95.5" y1="459.0234" y2="459.0234"/><line style="stroke:#005500;stroke-width:1.0;" x1="95.5" x2="95.5" y1="459.0234" y2="472.0234"/><line style="stroke:#005500;stroke-width:1.0;" x1="54.5" x2="95.5" y1="472.0234" y2="472.0234"/><polygon fill="#005500" points="64.5,468.0234,54.5,472.0234,64.5,476.0234,60.5,472.0234" style="stroke:#005500;stroke-width:1.0;"/><text fill="#000000" font-family="sans-serif" font-size="13" lengthAdjust="spacing" textLength="145" x="60.5" y="453.9575">Check return code 200</text><!--MD5=[b045449b51c6fd795dcf4cfab71e0fdd]
@startuml
hide footbox
skinparam sequenceMessageAlign center
skinparam sequence {
ArrowColor #005500
LifeLineBorderColor Black
ActorFontColor Black
ActorBorderColor Black
ParticipantBorderColor Black
ParticipantBackgroundColor #c9f4ff
ActorBackgroundColor #c9f4ff
}

participant "Viewer" as viewer
participant "FHIR Server" as server
participant "PACS" as pacs

group FHIR
  viewer -> server : FHIR GET ImagingStudy resource
  activate server #b3ffd7
  server  -> viewer : Return ImagingStudy resource
  deactivate server
  viewer -> viewer : Check return code 200
end

group FHIR
  viewer -> server : FHIR GET Endpoint resource
  activate server #b3ffd7
  server  -> viewer: Return Endpoint resource
  deactivate server
  viewer -> viewer : Check return code 200
  viewer -> viewer : Check Endpoint/address notEmpty
end

group DICOMWeb
  viewer -> pacs : WADO GET study DICOM objects binary
  activate pacs #b3ffd7
  pacs -> viewer: Return 
  deactivate pacs
  viewer -> viewer : Check return code 200
end
@enduml

PlantUML version 1.2021.10beta3(Unknown compile time)
(GPL source distribution)
Java Runtime: Java(TM) SE Runtime Environment
JVM: Java HotSpot(TM) 64-Bit Server VM
Default Encoding: UTF-8
Language: en
Country: US
--></g></svg>