<?xml version="1.0" encoding="UTF-8" standalone="no"?><svg xmlns="http://www.w3.org/2000/svg" xmlns:xlink="http://www.w3.org/1999/xlink" contentScriptType="application/ecmascript" contentStyleType="text/css" height="1417px" preserveAspectRatio="none" style="width:827px;height:1417px;background:#FFFFFF;" version="1.1" viewBox="0 0 827 1417" width="827px" zoomAndPan="magnify"><defs><filter height="300%" id="f1hfcgaz01rnnv" width="300%" x="-1" y="-1"><feGaussianBlur result="blurOut" stdDeviation="2.0"/><feColorMatrix in="blurOut" result="blurOut2" type="matrix" values="0 0 0 0 0 0 0 0 0 0 0 0 0 0 0 0 0 0 .4 0"/><feOffset dx="4.0" dy="4.0" in="blurOut2" result="blurOut3"/><feBlend in="SourceGraphic" in2="blurOut3" mode="normal"/></filter></defs><g><rect fill="#B3FFD7" filter="url(#f1hfcgaz01rnnv)" height="29.1328" style="stroke:#000000;stroke-width:1.0;" width="10" x="747.5" y="172.6953"/><rect fill="#B3FFD7" filter="url(#f1hfcgaz01rnnv)" height="29.1328" style="stroke:#000000;stroke-width:1.0;" width="10" x="747.5" y="262.0938"/><rect fill="#B3FFD7" filter="url(#f1hfcgaz01rnnv)" height="29.1328" style="stroke:#000000;stroke-width:1.0;" width="10" x="747.5" y="393.625"/><rect fill="#B3FFD7" filter="url(#f1hfcgaz01rnnv)" height="29.1328" style="stroke:#000000;stroke-width:1.0;" width="10" x="747.5" y="525.1563"/><rect fill="#B3FFD7" filter="url(#f1hfcgaz01rnnv)" height="29.1328" style="stroke:#000000;stroke-width:1.0;" width="10" x="747.5" y="656.6875"/><rect fill="#B3FFD7" filter="url(#f1hfcgaz01rnnv)" height="29.1328" style="stroke:#000000;stroke-width:1.0;" width="10" x="747.5" y="788.2188"/><rect fill="#B3FFD7" filter="url(#f1hfcgaz01rnnv)" height="29.1328" style="stroke:#000000;stroke-width:1.0;" width="10" x="747.5" y="919.75"/><rect fill="#B3FFD7" filter="url(#f1hfcgaz01rnnv)" height="29.1328" style="stroke:#000000;stroke-width:1.0;" width="10" x="747.5" y="1051.2813"/><rect fill="#B3FFD7" filter="url(#f1hfcgaz01rnnv)" height="29.1328" style="stroke:#000000;stroke-width:1.0;" width="10" x="747.5" y="1182.8125"/><rect fill="#B3FFD7" filter="url(#f1hfcgaz01rnnv)" height="29.1328" style="stroke:#000000;stroke-width:1.0;" width="10" x="747.5" y="1314.3438"/><rect fill="#FFFFFF" filter="url(#f1hfcgaz01rnnv)" height="75.3984" style="stroke:#000000;stroke-width:2.0;" width="668" x="145" y="134.4297"/><rect fill="#FFFFFF" filter="url(#f1hfcgaz01rnnv)" height="117.5313" style="stroke:#000000;stroke-width:2.0;" width="668" x="145" y="223.8281"/><rect fill="#FFFFFF" filter="url(#f1hfcgaz01rnnv)" height="117.5313" style="stroke:#000000;stroke-width:2.0;" width="668" x="145" y="355.3594"/><rect fill="#FFFFFF" filter="url(#f1hfcgaz01rnnv)" height="117.5313" style="stroke:#000000;stroke-width:2.0;" width="668" x="145" y="486.8906"/><rect fill="#FFFFFF" filter="url(#f1hfcgaz01rnnv)" height="117.5313" style="stroke:#000000;stroke-width:2.0;" width="668" x="145" y="618.4219"/><rect fill="#FFFFFF" filter="url(#f1hfcgaz01rnnv)" height="117.5313" style="stroke:#000000;stroke-width:2.0;" width="668" x="145" y="749.9531"/><rect fill="#FFFFFF" filter="url(#f1hfcgaz01rnnv)" height="117.5313" style="stroke:#000000;stroke-width:2.0;" width="668" x="145" y="881.4844"/><rect fill="#FFFFFF" filter="url(#f1hfcgaz01rnnv)" height="117.5313" style="stroke:#000000;stroke-width:2.0;" width="668" x="145" y="1013.0156"/><rect fill="#FFFFFF" filter="url(#f1hfcgaz01rnnv)" height="117.5313" style="stroke:#000000;stroke-width:2.0;" width="668" x="145" y="1144.5469"/><rect fill="#FFFFFF" filter="url(#f1hfcgaz01rnnv)" height="117.5313" style="stroke:#000000;stroke-width:2.0;" width="668" x="145" y="1276.0781"/><line style="stroke:#000000;stroke-width:1.0;stroke-dasharray:5.0,5.0;" x1="31" x2="31" y1="88.2969" y2="1410.6094"/><line style="stroke:#000000;stroke-width:1.0;stroke-dasharray:5.0,5.0;" x1="212" x2="212" y1="88.2969" y2="1410.6094"/><line style="stroke:#000000;stroke-width:1.0;stroke-dasharray:5.0,5.0;" x1="752" x2="752" y1="88.2969" y2="1410.6094"/><text fill="#000000" font-family="sans-serif" font-size="14" lengthAdjust="spacing" textLength="47" x="5" y="84.9951">Tester</text><ellipse cx="31.5" cy="15" fill="#C9F4FF" filter="url(#f1hfcgaz01rnnv)" rx="8" ry="8" style="stroke:#000000;stroke-width:2.0;"/><path d="M31.5,23 L31.5,50 M18.5,31 L44.5,31 M31.5,50 L18.5,65 M31.5,50 L44.5,65 " fill="none" filter="url(#f1hfcgaz01rnnv)" style="stroke:#000000;stroke-width:2.0;"/><rect fill="#C9F4FF" filter="url(#f1hfcgaz01rnnv)" height="30.2969" style="stroke:#000000;stroke-width:1.5;" width="111" x="155" y="53"/><text fill="#000000" font-family="sans-serif" font-size="14" lengthAdjust="spacing" textLength="97" x="162" y="72.9951">Viewer Script</text><rect fill="#C9F4FF" filter="url(#f1hfcgaz01rnnv)" height="30.2969" style="stroke:#000000;stroke-width:1.5;" width="97" x="702" y="53"/><text fill="#000000" font-family="sans-serif" font-size="14" lengthAdjust="spacing" textLength="83" x="709" y="72.9951">FHIR Server</text><rect fill="#B3FFD7" filter="url(#f1hfcgaz01rnnv)" height="29.1328" style="stroke:#000000;stroke-width:1.0;" width="10" x="747.5" y="172.6953"/><rect fill="#B3FFD7" filter="url(#f1hfcgaz01rnnv)" height="29.1328" style="stroke:#000000;stroke-width:1.0;" width="10" x="747.5" y="262.0938"/><rect fill="#B3FFD7" filter="url(#f1hfcgaz01rnnv)" height="29.1328" style="stroke:#000000;stroke-width:1.0;" width="10" x="747.5" y="393.625"/><rect fill="#B3FFD7" filter="url(#f1hfcgaz01rnnv)" height="29.1328" style="stroke:#000000;stroke-width:1.0;" width="10" x="747.5" y="525.1563"/><rect fill="#B3FFD7" filter="url(#f1hfcgaz01rnnv)" height="29.1328" style="stroke:#000000;stroke-width:1.0;" width="10" x="747.5" y="656.6875"/><rect fill="#B3FFD7" filter="url(#f1hfcgaz01rnnv)" height="29.1328" style="stroke:#000000;stroke-width:1.0;" width="10" x="747.5" y="788.2188"/><rect fill="#B3FFD7" filter="url(#f1hfcgaz01rnnv)" height="29.1328" style="stroke:#000000;stroke-width:1.0;" width="10" x="747.5" y="919.75"/><rect fill="#B3FFD7" filter="url(#f1hfcgaz01rnnv)" height="29.1328" style="stroke:#000000;stroke-width:1.0;" width="10" x="747.5" y="1051.2813"/><rect fill="#B3FFD7" filter="url(#f1hfcgaz01rnnv)" height="29.1328" style="stroke:#000000;stroke-width:1.0;" width="10" x="747.5" y="1182.8125"/><rect fill="#B3FFD7" filter="url(#f1hfcgaz01rnnv)" height="29.1328" style="stroke:#000000;stroke-width:1.0;" width="10" x="747.5" y="1314.3438"/><polygon fill="#005500" points="200.5,115.4297,210.5,119.4297,200.5,123.4297,204.5,119.4297" style="stroke:#005500;stroke-width:1.0;"/><line style="stroke:#005500;stroke-width:1.0;" x1="31.5" x2="206.5" y1="119.4297" y2="119.4297"/><text fill="#000000" font-family="sans-serif" font-size="13" lengthAdjust="spacing" textLength="157" x="43.5" y="114.3638">Provide ImagingStudy ID</text><path d="M145,134.4297 L224,134.4297 L224,141.4297 L214,151.4297 L145,151.4297 L145,134.4297 " fill="#EEEEEE" style="stroke:#000000;stroke-width:1.0;"/><rect fill="none" height="75.3984" style="stroke:#000000;stroke-width:2.0;" width="668" x="145" y="134.4297"/><text fill="#000000" font-family="sans-serif" font-size="13" font-weight="bold" lengthAdjust="spacing" textLength="34" x="160" y="147.4966">read</text><polygon fill="#005500" points="735.5,168.6953,745.5,172.6953,735.5,176.6953,739.5,172.6953" style="stroke:#005500;stroke-width:1.0;"/><line style="stroke:#005500;stroke-width:1.0;" x1="212.5" x2="741.5" y1="172.6953" y2="172.6953"/><text fill="#000000" font-family="sans-serif" font-size="13" lengthAdjust="spacing" textLength="210" x="375" y="167.6294">FHIR GET ImagingStudy resource</text><polygon fill="#005500" points="223.5,197.8281,213.5,201.8281,223.5,205.8281,219.5,201.8281" style="stroke:#005500;stroke-width:1.0;"/><line style="stroke:#005500;stroke-width:1.0;" x1="217.5" x2="751.5" y1="201.8281" y2="201.8281"/><text fill="#000000" font-family="sans-serif" font-size="13" lengthAdjust="spacing" textLength="195" x="385" y="196.7622">Return ImagingStudy resource</text><path d="M145,223.8281 L409,223.8281 L409,230.8281 L399,240.8281 L145,240.8281 L145,223.8281 " fill="#EEEEEE" style="stroke:#000000;stroke-width:1.0;"/><rect fill="none" height="117.5313" style="stroke:#000000;stroke-width:2.0;" width="668" x="145" y="223.8281"/><text fill="#000000" font-family="sans-serif" font-size="13" font-weight="bold" lengthAdjust="spacing" textLength="219" x="160" y="236.895">search_RadiationSummary_id</text><polygon fill="#005500" points="735.5,258.0938,745.5,262.0938,735.5,266.0938,739.5,262.0938" style="stroke:#005500;stroke-width:1.0;"/><line style="stroke:#005500;stroke-width:1.0;" x1="212.5" x2="741.5" y1="262.0938" y2="262.0938"/><text fill="#000000" font-family="sans-serif" font-size="13" lengthAdjust="spacing" textLength="427" x="266.5" y="257.0278">FHIR SEARCH Radiation Summary resources using ImagingStudy/id</text><polygon fill="#005500" points="223.5,287.2266,213.5,291.2266,223.5,295.2266,219.5,291.2266" style="stroke:#005500;stroke-width:1.0;"/><line style="stroke:#005500;stroke-width:1.0;" x1="217.5" x2="751.5" y1="291.2266" y2="291.2266"/><text fill="#000000" font-family="sans-serif" font-size="13" lengthAdjust="spacing" textLength="256" x="354.5" y="286.1606">Return Bundle of Observation resources</text><line style="stroke:#005500;stroke-width:1.0;" x1="212.5" x2="254.5" y1="320.3594" y2="320.3594"/><line style="stroke:#005500;stroke-width:1.0;" x1="254.5" x2="254.5" y1="320.3594" y2="333.3594"/><line style="stroke:#005500;stroke-width:1.0;" x1="213.5" x2="254.5" y1="333.3594" y2="333.3594"/><polygon fill="#005500" points="223.5,329.3594,213.5,333.3594,223.5,337.3594,219.5,333.3594" style="stroke:#005500;stroke-width:1.0;"/><text fill="#000000" font-family="sans-serif" font-size="13" lengthAdjust="spacing" textLength="143" x="219.5" y="315.2935">check Bundle.total &gt; 0</text><path d="M145,355.3594 L466,355.3594 L466,362.3594 L456,372.3594 L145,372.3594 L145,355.3594 " fill="#EEEEEE" style="stroke:#000000;stroke-width:1.0;"/><rect fill="none" height="117.5313" style="stroke:#000000;stroke-width:2.0;" width="668" x="145" y="355.3594"/><text fill="#000000" font-family="sans-serif" font-size="13" font-weight="bold" lengthAdjust="spacing" textLength="276" x="160" y="368.4263">search_RadiationSummary_identifier</text><polygon fill="#005500" points="735.5,389.625,745.5,393.625,735.5,397.625,739.5,393.625" style="stroke:#005500;stroke-width:1.0;"/><line style="stroke:#005500;stroke-width:1.0;" x1="212.5" x2="741.5" y1="393.625" y2="393.625"/><text fill="#000000" font-family="sans-serif" font-size="13" lengthAdjust="spacing" textLength="472" x="244" y="388.5591">FHIR SEARCH Radiation Summary resources using ImagingStudy/identifier</text><polygon fill="#005500" points="223.5,418.7578,213.5,422.7578,223.5,426.7578,219.5,422.7578" style="stroke:#005500;stroke-width:1.0;"/><line style="stroke:#005500;stroke-width:1.0;" x1="217.5" x2="751.5" y1="422.7578" y2="422.7578"/><text fill="#000000" font-family="sans-serif" font-size="13" lengthAdjust="spacing" textLength="256" x="354.5" y="417.6919">Return Bundle of Observation resources</text><line style="stroke:#005500;stroke-width:1.0;" x1="212.5" x2="254.5" y1="451.8906" y2="451.8906"/><line style="stroke:#005500;stroke-width:1.0;" x1="254.5" x2="254.5" y1="451.8906" y2="464.8906"/><line style="stroke:#005500;stroke-width:1.0;" x1="213.5" x2="254.5" y1="464.8906" y2="464.8906"/><polygon fill="#005500" points="223.5,460.8906,213.5,464.8906,223.5,468.8906,219.5,464.8906" style="stroke:#005500;stroke-width:1.0;"/><text fill="#000000" font-family="sans-serif" font-size="13" lengthAdjust="spacing" textLength="143" x="219.5" y="446.8247">check Bundle.total &gt; 0</text><path d="M145,486.8906 L359,486.8906 L359,493.8906 L349,503.8906 L145,503.8906 L145,486.8906 " fill="#EEEEEE" style="stroke:#000000;stroke-width:1.0;"/><rect fill="none" height="117.5313" style="stroke:#000000;stroke-width:2.0;" width="668" x="145" y="486.8906"/><text fill="#000000" font-family="sans-serif" font-size="13" font-weight="bold" lengthAdjust="spacing" textLength="169" x="160" y="499.9575">search_Observation_id</text><polygon fill="#005500" points="735.5,521.1563,745.5,525.1563,735.5,529.1563,739.5,525.1563" style="stroke:#005500;stroke-width:1.0;"/><line style="stroke:#005500;stroke-width:1.0;" x1="212.5" x2="741.5" y1="525.1563" y2="525.1563"/><text fill="#000000" font-family="sans-serif" font-size="13" lengthAdjust="spacing" textLength="378" x="291" y="520.0903">FHIR SEARCH Observation resources using ImagingStudy/id</text><polygon fill="#005500" points="223.5,550.2891,213.5,554.2891,223.5,558.2891,219.5,554.2891" style="stroke:#005500;stroke-width:1.0;"/><line style="stroke:#005500;stroke-width:1.0;" x1="217.5" x2="751.5" y1="554.2891" y2="554.2891"/><text fill="#000000" font-family="sans-serif" font-size="13" lengthAdjust="spacing" textLength="256" x="354.5" y="549.2231">Return Bundle of Observation resources</text><line style="stroke:#005500;stroke-width:1.0;" x1="212.5" x2="254.5" y1="583.4219" y2="583.4219"/><line style="stroke:#005500;stroke-width:1.0;" x1="254.5" x2="254.5" y1="583.4219" y2="596.4219"/><line style="stroke:#005500;stroke-width:1.0;" x1="213.5" x2="254.5" y1="596.4219" y2="596.4219"/><polygon fill="#005500" points="223.5,592.4219,213.5,596.4219,223.5,600.4219,219.5,596.4219" style="stroke:#005500;stroke-width:1.0;"/><text fill="#000000" font-family="sans-serif" font-size="13" lengthAdjust="spacing" textLength="143" x="219.5" y="578.356">check Bundle.total &gt; 0</text><path d="M145,618.4219 L416,618.4219 L416,625.4219 L406,635.4219 L145,635.4219 L145,618.4219 " fill="#EEEEEE" style="stroke:#000000;stroke-width:1.0;"/><rect fill="none" height="117.5313" style="stroke:#000000;stroke-width:2.0;" width="668" x="145" y="618.4219"/><text fill="#000000" font-family="sans-serif" font-size="13" font-weight="bold" lengthAdjust="spacing" textLength="226" x="160" y="631.4888">search_Observation_identifier</text><polygon fill="#005500" points="735.5,652.6875,745.5,656.6875,735.5,660.6875,739.5,656.6875" style="stroke:#005500;stroke-width:1.0;"/><line style="stroke:#005500;stroke-width:1.0;" x1="212.5" x2="741.5" y1="656.6875" y2="656.6875"/><text fill="#000000" font-family="sans-serif" font-size="13" lengthAdjust="spacing" textLength="423" x="268.5" y="651.6216">FHIR SEARCH Observation resources using ImagingStudy/identifier</text><polygon fill="#005500" points="223.5,681.8203,213.5,685.8203,223.5,689.8203,219.5,685.8203" style="stroke:#005500;stroke-width:1.0;"/><line style="stroke:#005500;stroke-width:1.0;" x1="217.5" x2="751.5" y1="685.8203" y2="685.8203"/><text fill="#000000" font-family="sans-serif" font-size="13" lengthAdjust="spacing" textLength="256" x="354.5" y="680.7544">Return Bundle of Observation resources</text><line style="stroke:#005500;stroke-width:1.0;" x1="212.5" x2="254.5" y1="714.9531" y2="714.9531"/><line style="stroke:#005500;stroke-width:1.0;" x1="254.5" x2="254.5" y1="714.9531" y2="727.9531"/><line style="stroke:#005500;stroke-width:1.0;" x1="213.5" x2="254.5" y1="727.9531" y2="727.9531"/><polygon fill="#005500" points="223.5,723.9531,213.5,727.9531,223.5,731.9531,219.5,727.9531" style="stroke:#005500;stroke-width:1.0;"/><text fill="#000000" font-family="sans-serif" font-size="13" lengthAdjust="spacing" textLength="143" x="219.5" y="709.8872">check Bundle.total &gt; 0</text><path d="M145,749.9531 L402,749.9531 L402,756.9531 L392,766.9531 L145,766.9531 L145,749.9531 " fill="#EEEEEE" style="stroke:#000000;stroke-width:1.0;"/><rect fill="none" height="117.5313" style="stroke:#000000;stroke-width:2.0;" width="668" x="145" y="749.9531"/><text fill="#000000" font-family="sans-serif" font-size="13" font-weight="bold" lengthAdjust="spacing" textLength="212" x="160" y="763.02">search_ClinicalImpression_id</text><polygon fill="#005500" points="735.5,784.2188,745.5,788.2188,735.5,792.2188,739.5,788.2188" style="stroke:#005500;stroke-width:1.0;"/><line style="stroke:#005500;stroke-width:1.0;" x1="212.5" x2="741.5" y1="788.2188" y2="788.2188"/><text fill="#000000" font-family="sans-serif" font-size="13" lengthAdjust="spacing" textLength="414" x="273" y="783.1528">FHIR SEARCH ClinicalImpression resources using ImagingStudy/id</text><polygon fill="#005500" points="223.5,813.3516,213.5,817.3516,223.5,821.3516,219.5,817.3516" style="stroke:#005500;stroke-width:1.0;"/><line style="stroke:#005500;stroke-width:1.0;" x1="217.5" x2="751.5" y1="817.3516" y2="817.3516"/><text fill="#000000" font-family="sans-serif" font-size="13" lengthAdjust="spacing" textLength="292" x="336.5" y="812.2856">Return Bundle of ClinicalImpression resources</text><line style="stroke:#005500;stroke-width:1.0;" x1="212.5" x2="254.5" y1="846.4844" y2="846.4844"/><line style="stroke:#005500;stroke-width:1.0;" x1="254.5" x2="254.5" y1="846.4844" y2="859.4844"/><line style="stroke:#005500;stroke-width:1.0;" x1="213.5" x2="254.5" y1="859.4844" y2="859.4844"/><polygon fill="#005500" points="223.5,855.4844,213.5,859.4844,223.5,863.4844,219.5,859.4844" style="stroke:#005500;stroke-width:1.0;"/><text fill="#000000" font-family="sans-serif" font-size="13" lengthAdjust="spacing" textLength="143" x="219.5" y="841.4185">check Bundle.total &gt; 0</text><path d="M145,881.4844 L459,881.4844 L459,888.4844 L449,898.4844 L145,898.4844 L145,881.4844 " fill="#EEEEEE" style="stroke:#000000;stroke-width:1.0;"/><rect fill="none" height="117.5313" style="stroke:#000000;stroke-width:2.0;" width="668" x="145" y="881.4844"/><text fill="#000000" font-family="sans-serif" font-size="13" font-weight="bold" lengthAdjust="spacing" textLength="269" x="160" y="894.5513">search_ClinicalImpression_identifier</text><polygon fill="#005500" points="735.5,915.75,745.5,919.75,735.5,923.75,739.5,919.75" style="stroke:#005500;stroke-width:1.0;"/><line style="stroke:#005500;stroke-width:1.0;" x1="212.5" x2="741.5" y1="919.75" y2="919.75"/><text fill="#000000" font-family="sans-serif" font-size="13" lengthAdjust="spacing" textLength="459" x="250.5" y="914.6841">FHIR SEARCH ClinicalImpression resources using ImagingStudy/identifier</text><polygon fill="#005500" points="223.5,944.8828,213.5,948.8828,223.5,952.8828,219.5,948.8828" style="stroke:#005500;stroke-width:1.0;"/><line style="stroke:#005500;stroke-width:1.0;" x1="217.5" x2="751.5" y1="948.8828" y2="948.8828"/><text fill="#000000" font-family="sans-serif" font-size="13" lengthAdjust="spacing" textLength="292" x="336.5" y="943.8169">Return Bundle of ClinicalImpression resources</text><line style="stroke:#005500;stroke-width:1.0;" x1="212.5" x2="254.5" y1="978.0156" y2="978.0156"/><line style="stroke:#005500;stroke-width:1.0;" x1="254.5" x2="254.5" y1="978.0156" y2="991.0156"/><line style="stroke:#005500;stroke-width:1.0;" x1="213.5" x2="254.5" y1="991.0156" y2="991.0156"/><polygon fill="#005500" points="223.5,987.0156,213.5,991.0156,223.5,995.0156,219.5,991.0156" style="stroke:#005500;stroke-width:1.0;"/><text fill="#000000" font-family="sans-serif" font-size="13" lengthAdjust="spacing" textLength="143" x="219.5" y="972.9497">check Bundle.total &gt; 0</text><path d="M145,1013.0156 L356,1013.0156 L356,1020.0156 L346,1030.0156 L145,1030.0156 L145,1013.0156 " fill="#EEEEEE" style="stroke:#000000;stroke-width:1.0;"/><rect fill="none" height="117.5313" style="stroke:#000000;stroke-width:2.0;" width="668" x="145" y="1013.0156"/><text fill="#000000" font-family="sans-serif" font-size="13" font-weight="bold" lengthAdjust="spacing" textLength="166" x="160" y="1026.0825">search_ChargeItem_id</text><polygon fill="#005500" points="735.5,1047.2813,745.5,1051.2813,735.5,1055.2813,739.5,1051.2813" style="stroke:#005500;stroke-width:1.0;"/><line style="stroke:#005500;stroke-width:1.0;" x1="212.5" x2="741.5" y1="1051.2813" y2="1051.2813"/><text fill="#000000" font-family="sans-serif" font-size="13" lengthAdjust="spacing" textLength="375" x="292.5" y="1046.2153">FHIR SEARCH ChargeItem resources using ImagingStudy/id</text><polygon fill="#005500" points="223.5,1076.4141,213.5,1080.4141,223.5,1084.4141,219.5,1080.4141" style="stroke:#005500;stroke-width:1.0;"/><line style="stroke:#005500;stroke-width:1.0;" x1="217.5" x2="751.5" y1="1080.4141" y2="1080.4141"/><text fill="#000000" font-family="sans-serif" font-size="13" lengthAdjust="spacing" textLength="253" x="356" y="1075.3481">Return Bundle of ChargeItem resources</text><line style="stroke:#005500;stroke-width:1.0;" x1="212.5" x2="254.5" y1="1109.5469" y2="1109.5469"/><line style="stroke:#005500;stroke-width:1.0;" x1="254.5" x2="254.5" y1="1109.5469" y2="1122.5469"/><line style="stroke:#005500;stroke-width:1.0;" x1="213.5" x2="254.5" y1="1122.5469" y2="1122.5469"/><polygon fill="#005500" points="223.5,1118.5469,213.5,1122.5469,223.5,1126.5469,219.5,1122.5469" style="stroke:#005500;stroke-width:1.0;"/><text fill="#000000" font-family="sans-serif" font-size="13" lengthAdjust="spacing" textLength="143" x="219.5" y="1104.481">check Bundle.total &gt; 0</text><path d="M145,1144.5469 L413,1144.5469 L413,1151.5469 L403,1161.5469 L145,1161.5469 L145,1144.5469 " fill="#EEEEEE" style="stroke:#000000;stroke-width:1.0;"/><rect fill="none" height="117.5313" style="stroke:#000000;stroke-width:2.0;" width="668" x="145" y="1144.5469"/><text fill="#000000" font-family="sans-serif" font-size="13" font-weight="bold" lengthAdjust="spacing" textLength="223" x="160" y="1157.6138">search_ChargeItem_identifier</text><polygon fill="#005500" points="735.5,1178.8125,745.5,1182.8125,735.5,1186.8125,739.5,1182.8125" style="stroke:#005500;stroke-width:1.0;"/><line style="stroke:#005500;stroke-width:1.0;" x1="212.5" x2="741.5" y1="1182.8125" y2="1182.8125"/><text fill="#000000" font-family="sans-serif" font-size="13" lengthAdjust="spacing" textLength="420" x="270" y="1177.7466">FHIR SEARCH ChargeItem resources using ImagingStudy/identifier</text><polygon fill="#005500" points="223.5,1207.9453,213.5,1211.9453,223.5,1215.9453,219.5,1211.9453" style="stroke:#005500;stroke-width:1.0;"/><line style="stroke:#005500;stroke-width:1.0;" x1="217.5" x2="751.5" y1="1211.9453" y2="1211.9453"/><text fill="#000000" font-family="sans-serif" font-size="13" lengthAdjust="spacing" textLength="253" x="356" y="1206.8794">Return Bundle of ChargeItem resources</text><line style="stroke:#005500;stroke-width:1.0;" x1="212.5" x2="254.5" y1="1241.0781" y2="1241.0781"/><line style="stroke:#005500;stroke-width:1.0;" x1="254.5" x2="254.5" y1="1241.0781" y2="1254.0781"/><line style="stroke:#005500;stroke-width:1.0;" x1="213.5" x2="254.5" y1="1254.0781" y2="1254.0781"/><polygon fill="#005500" points="223.5,1250.0781,213.5,1254.0781,223.5,1258.0781,219.5,1254.0781" style="stroke:#005500;stroke-width:1.0;"/><text fill="#000000" font-family="sans-serif" font-size="13" lengthAdjust="spacing" textLength="143" x="219.5" y="1236.0122">check Bundle.total &gt; 0</text><path d="M145,1276.0781 L400,1276.0781 L400,1283.0781 L390,1293.0781 L145,1293.0781 L145,1276.0781 " fill="#EEEEEE" style="stroke:#000000;stroke-width:1.0;"/><rect fill="none" height="117.5313" style="stroke:#000000;stroke-width:2.0;" width="668" x="145" y="1276.0781"/><text fill="#000000" font-family="sans-serif" font-size="13" font-weight="bold" lengthAdjust="spacing" textLength="210" x="160" y="1289.145">search_DiagnosticReport_id</text><polygon fill="#005500" points="735.5,1310.3438,745.5,1314.3438,735.5,1318.3438,739.5,1314.3438" style="stroke:#005500;stroke-width:1.0;"/><line style="stroke:#005500;stroke-width:1.0;" x1="212.5" x2="741.5" y1="1314.3438" y2="1314.3438"/><text fill="#000000" font-family="sans-serif" font-size="13" lengthAdjust="spacing" textLength="516" x="222" y="1309.2778">FHIR SEARCH DiagnosticReport resources using ImagingStudy/basedOn/identifier</text><polygon fill="#005500" points="223.5,1339.4766,213.5,1343.4766,223.5,1347.4766,219.5,1343.4766" style="stroke:#005500;stroke-width:1.0;"/><line style="stroke:#005500;stroke-width:1.0;" x1="217.5" x2="751.5" y1="1343.4766" y2="1343.4766"/><text fill="#000000" font-family="sans-serif" font-size="13" lengthAdjust="spacing" textLength="288" x="338.5" y="1338.4106">Return Bundle of DiagnosticReport resources</text><line style="stroke:#005500;stroke-width:1.0;" x1="212.5" x2="254.5" y1="1372.6094" y2="1372.6094"/><line style="stroke:#005500;stroke-width:1.0;" x1="254.5" x2="254.5" y1="1372.6094" y2="1385.6094"/><line style="stroke:#005500;stroke-width:1.0;" x1="213.5" x2="254.5" y1="1385.6094" y2="1385.6094"/><polygon fill="#005500" points="223.5,1381.6094,213.5,1385.6094,223.5,1389.6094,219.5,1385.6094" style="stroke:#005500;stroke-width:1.0;"/><text fill="#000000" font-family="sans-serif" font-size="13" lengthAdjust="spacing" textLength="143" x="219.5" y="1367.5435">check Bundle.total &gt; 0</text><!--MD5=[ff896c0b39d33e7583afc18f3a89591c]
@startuml
hide footbox
skinparam sequenceMessageAlign center
skinparam sequence {
  ArrowColor #005500
  LifeLineBorderColor Black
  ActorFontColor Black
  ActorBorderColor Black
  ParticipantBorderColor Black
  ParticipantBackgroundColor #c9f4ff
  ActorBackgroundColor #c9f4ff
}

actor "Tester" as tester
participant "Viewer Script" as viewer
participant "FHIR Server" as server

tester -> viewer : Provide ImagingStudy ID

group read
  viewer -> server : FHIR GET ImagingStudy resource
  activate server #b3ffd7
  server  -> viewer: Return ImagingStudy resource
  deactivate server
end

group search_RadiationSummary_id
  viewer -> server : FHIR SEARCH Radiation Summary resources using ImagingStudy/id
  activate server #b3ffd7
  server  -> viewer: Return Bundle of Observation resources
  deactivate server

  viewer -> viewer : check Bundle.total > 0
end

group search_RadiationSummary_identifier
  viewer -> server : FHIR SEARCH Radiation Summary resources using ImagingStudy/identifier
  activate server #b3ffd7
  server  -> viewer: Return Bundle of Observation resources
  deactivate server
  viewer -> viewer : check Bundle.total > 0
end

group search_Observation_id
  viewer -> server : FHIR SEARCH Observation resources using ImagingStudy/id
  activate server #b3ffd7
  server  -> viewer: Return Bundle of Observation resources
  deactivate server

  viewer -> viewer : check Bundle.total > 0
end

group search_Observation_identifier
  viewer -> server : FHIR SEARCH Observation resources using ImagingStudy/identifier
  activate server #b3ffd7
  server  -> viewer: Return Bundle of Observation resources
  deactivate server

  viewer -> viewer : check Bundle.total > 0
end

group search_ClinicalImpression_id
  viewer -> server : FHIR SEARCH ClinicalImpression resources using ImagingStudy/id
  activate server #b3ffd7
  server  -> viewer: Return Bundle of ClinicalImpression resources
  deactivate server

  viewer -> viewer : check Bundle.total > 0
end

group search_ClinicalImpression_identifier
  viewer -> server : FHIR SEARCH ClinicalImpression resources using ImagingStudy/identifier
  activate server #b3ffd7
  server  -> viewer: Return Bundle of ClinicalImpression resources
  deactivate server

  viewer -> viewer : check Bundle.total > 0
end

group search_ChargeItem_id
  viewer -> server : FHIR SEARCH ChargeItem resources using ImagingStudy/id
  activate server #b3ffd7
  server  -> viewer: Return Bundle of ChargeItem resources
  deactivate server

  viewer -> viewer : check Bundle.total > 0
end

group search_ChargeItem_identifier
  viewer -> server : FHIR SEARCH ChargeItem resources using ImagingStudy/identifier
  activate server #b3ffd7
  server  -> viewer: Return Bundle of ChargeItem resources
  deactivate server

  viewer -> viewer : check Bundle.total > 0
end

group search_DiagnosticReport_id
  viewer -> server : FHIR SEARCH DiagnosticReport resources using ImagingStudy/basedOn/identifier
  activate server #b3ffd7
  server  -> viewer: Return Bundle of DiagnosticReport resources
  deactivate server

  viewer -> viewer : check Bundle.total > 0
end
@enduml

PlantUML version 1.2021.16beta3(Unknown compile time)
(GPL source distribution)
Java Runtime: Java(TM) SE Runtime Environment
JVM: Java HotSpot(TM) 64-Bit Server VM
Default Encoding: UTF-8
Language: en
Country: US
--></g></svg>