<?xml version="1.0" encoding="UTF-8" standalone="no"?><svg xmlns="http://www.w3.org/2000/svg" xmlns:xlink="http://www.w3.org/1999/xlink" contentStyleType="text/css" height="489px" preserveAspectRatio="none" style="width:767px;height:489px;background:#FFFFFF;" version="1.1" viewBox="0 0 767 489" width="767px" zoomAndPan="magnify"><defs/><g><rect fill="#B3FFD7" height="29.1328" style="stroke:#000000;stroke-width:1.0;" width="10" x="697.5" y="165.6953"/><rect fill="#B3FFD7" height="29.1328" style="stroke:#000000;stroke-width:1.0;" width="10" x="697.5" y="255.0938"/><rect fill="#B3FFD7" height="29.1328" style="stroke:#000000;stroke-width:1.0;" width="10" x="697.5" y="386.625"/><rect height="75.3984" style="stroke:#000000;stroke-width:1.5;fill:none;" width="495" x="266" y="127.4297"/><rect height="117.5313" style="stroke:#000000;stroke-width:1.5;fill:none;" width="495" x="266" y="216.8281"/><rect height="117.5313" style="stroke:#000000;stroke-width:1.5;fill:none;" width="495" x="266" y="348.3594"/><line style="stroke:#000000;stroke-width:0.5;fill:none;stroke-dasharray:5.0,5.0;" x1="31" x2="31" y1="81.2969" y2="482.8906"/><line style="stroke:#000000;stroke-width:0.5;fill:none;stroke-dasharray:5.0,5.0;" x1="331" x2="331" y1="81.2969" y2="482.8906"/><line style="stroke:#000000;stroke-width:0.5;fill:none;stroke-dasharray:5.0,5.0;" x1="702" x2="702" y1="81.2969" y2="482.8906"/><text fill="#000000" font-family="sans-serif" font-size="14" lengthAdjust="spacing" textLength="47" x="5" y="77.9951">Tester</text><ellipse cx="31.5" cy="13.5" fill="#C9F4FF" rx="8" ry="8" style="stroke:#000000;stroke-width:0.5;"/><path d="M31.5,21.5 L31.5,48.5 M18.5,29.5 L44.5,29.5 M31.5,48.5 L18.5,63.5 M31.5,48.5 L44.5,63.5 " fill="none" style="stroke:#000000;stroke-width:0.5;"/><rect fill="#C9F4FF" height="30.2969" rx="2.5" ry="2.5" style="stroke:#000000;stroke-width:0.5;" width="111" x="276" y="50"/><text fill="#000000" font-family="sans-serif" font-size="14" lengthAdjust="spacing" textLength="97" x="283" y="69.9951">Viewer Script</text><rect fill="#C9F4FF" height="30.2969" rx="2.5" ry="2.5" style="stroke:#000000;stroke-width:0.5;" width="97" x="654" y="50"/><text fill="#000000" font-family="sans-serif" font-size="14" lengthAdjust="spacing" textLength="83" x="661" y="69.9951">FHIR Server</text><rect fill="#B3FFD7" height="29.1328" style="stroke:#000000;stroke-width:1.0;" width="10" x="697.5" y="165.6953"/><rect fill="#B3FFD7" height="29.1328" style="stroke:#000000;stroke-width:1.0;" width="10" x="697.5" y="255.0938"/><rect fill="#B3FFD7" height="29.1328" style="stroke:#000000;stroke-width:1.0;" width="10" x="697.5" y="386.625"/><polygon fill="#005500" points="319.5,108.4297,329.5,112.4297,319.5,116.4297,323.5,112.4297" style="stroke:#005500;stroke-width:1.0;"/><line style="stroke:#005500;stroke-width:1.0;" x1="31.5" x2="325.5" y1="112.4297" y2="112.4297"/><text fill="#000000" font-family="sans-serif" font-size="13" lengthAdjust="spacing" textLength="276" x="43.5" y="107.3638">Provide Imaging Measurement Resource ID</text><path d="M266,127.4297 L345,127.4297 L345,134.5625 L335,144.5625 L266,144.5625 L266,127.4297 " fill="#EEEEEE" style="stroke:#000000;stroke-width:1.5;"/><rect fill="none" height="75.3984" style="stroke:#000000;stroke-width:1.5;" width="495" x="266" y="127.4297"/><text fill="#000000" font-family="sans-serif" font-size="13" font-weight="bold" lengthAdjust="spacing" textLength="34" x="281" y="140.4966">read</text><polygon fill="#005500" points="685.5,161.6953,695.5,165.6953,685.5,169.6953,689.5,165.6953" style="stroke:#005500;stroke-width:1.0;"/><line style="stroke:#005500;stroke-width:1.0;" x1="331.5" x2="691.5" y1="165.6953" y2="165.6953"/><text fill="#000000" font-family="sans-serif" font-size="13" lengthAdjust="spacing" textLength="347" x="341" y="160.6294">FHIR GET Imaging Measurement Observation resource</text><polygon fill="#005500" points="342.5,190.8281,332.5,194.8281,342.5,198.8281,338.5,194.8281" style="stroke:#005500;stroke-width:1.0;"/><line style="stroke:#005500;stroke-width:1.0;" x1="336.5" x2="701.5" y1="194.8281" y2="194.8281"/><text fill="#000000" font-family="sans-serif" font-size="13" lengthAdjust="spacing" textLength="332" x="351" y="189.7622">Return Imaging Measurement Observation resource</text><path d="M266,216.8281 L408,216.8281 L408,223.9609 L398,233.9609 L266,233.9609 L266,216.8281 " fill="#EEEEEE" style="stroke:#000000;stroke-width:1.5;"/><rect fill="none" height="117.5313" style="stroke:#000000;stroke-width:1.5;" width="495" x="266" y="216.8281"/><text fill="#000000" font-family="sans-serif" font-size="13" font-weight="bold" lengthAdjust="spacing" textLength="97" x="281" y="229.895">read_patient</text><polygon fill="#005500" points="685.5,251.0938,695.5,255.0938,685.5,259.0938,689.5,255.0938" style="stroke:#005500;stroke-width:1.0;"/><line style="stroke:#005500;stroke-width:1.0;" x1="331.5" x2="691.5" y1="255.0938" y2="255.0938"/><text fill="#000000" font-family="sans-serif" font-size="13" lengthAdjust="spacing" textLength="216" x="406.5" y="250.0278">FHIR GET related Patient resource</text><polygon fill="#005500" points="342.5,280.2266,332.5,284.2266,342.5,288.2266,338.5,284.2266" style="stroke:#005500;stroke-width:1.0;"/><line style="stroke:#005500;stroke-width:1.0;" x1="336.5" x2="701.5" y1="284.2266" y2="284.2266"/><text fill="#000000" font-family="sans-serif" font-size="13" lengthAdjust="spacing" textLength="152" x="441" y="279.1606">Return Patient resource</text><line style="stroke:#005500;stroke-width:1.0;" x1="331.5" x2="373.5" y1="313.3594" y2="313.3594"/><line style="stroke:#005500;stroke-width:1.0;" x1="373.5" x2="373.5" y1="313.3594" y2="326.3594"/><line style="stroke:#005500;stroke-width:1.0;" x1="332.5" x2="373.5" y1="326.3594" y2="326.3594"/><polygon fill="#005500" points="342.5,322.3594,332.5,326.3594,342.5,330.3594,338.5,326.3594" style="stroke:#005500;stroke-width:1.0;"/><text fill="#000000" font-family="sans-serif" font-size="13" lengthAdjust="spacing" textLength="156" x="338.5" y="308.2935">check response 200,201</text><path d="M266,348.3594 L459,348.3594 L459,355.4922 L449,365.4922 L266,365.4922 L266,348.3594 " fill="#EEEEEE" style="stroke:#000000;stroke-width:1.5;"/><rect fill="none" height="117.5313" style="stroke:#000000;stroke-width:1.5;" width="495" x="266" y="348.3594"/><text fill="#000000" font-family="sans-serif" font-size="13" font-weight="bold" lengthAdjust="spacing" textLength="148" x="281" y="361.4263">read_imaging_study</text><polygon fill="#005500" points="685.5,382.625,695.5,386.625,685.5,390.625,689.5,386.625" style="stroke:#005500;stroke-width:1.0;"/><line style="stroke:#005500;stroke-width:1.0;" x1="331.5" x2="691.5" y1="386.625" y2="386.625"/><text fill="#000000" font-family="sans-serif" font-size="13" lengthAdjust="spacing" textLength="259" x="385" y="381.5591">FHIR GET related ImagingStudy resource</text><polygon fill="#005500" points="342.5,411.7578,332.5,415.7578,342.5,419.7578,338.5,415.7578" style="stroke:#005500;stroke-width:1.0;"/><line style="stroke:#005500;stroke-width:1.0;" x1="336.5" x2="701.5" y1="415.7578" y2="415.7578"/><text fill="#000000" font-family="sans-serif" font-size="13" lengthAdjust="spacing" textLength="195" x="419.5" y="410.6919">Return ImagingStudy resource</text><line style="stroke:#005500;stroke-width:1.0;" x1="331.5" x2="373.5" y1="444.8906" y2="444.8906"/><line style="stroke:#005500;stroke-width:1.0;" x1="373.5" x2="373.5" y1="444.8906" y2="457.8906"/><line style="stroke:#005500;stroke-width:1.0;" x1="332.5" x2="373.5" y1="457.8906" y2="457.8906"/><polygon fill="#005500" points="342.5,453.8906,332.5,457.8906,342.5,461.8906,338.5,457.8906" style="stroke:#005500;stroke-width:1.0;"/><text fill="#000000" font-family="sans-serif" font-size="13" lengthAdjust="spacing" textLength="156" x="338.5" y="439.8247">check response 200,201</text><!--MD5=[5ad9ba5a611d60282b6fb467e7482a35]
@startuml
hide footbox
skinparam sequenceMessageAlign center
skinparam sequence {
  ArrowColor #005500
  LifeLineBorderColor Black
  ActorFontColor Black
  ActorBorderColor Black
  ParticipantBorderColor Black
  ParticipantBackgroundColor #c9f4ff
  ActorBackgroundColor #c9f4ff
}

actor "Tester" as tester
participant "Viewer Script" as viewer
participant "FHIR Server" as server

tester -> viewer : Provide Imaging Measurement Resource ID

group read
  viewer -> server : FHIR GET Imaging Measurement Observation resource
  activate server #b3ffd7
  server  -> viewer: Return Imaging Measurement Observation resource
  deactivate server
end

group read_patient
  viewer -> server : FHIR GET related Patient resource
  activate server #b3ffd7
  server  -> viewer: Return Patient resource
  deactivate server

  viewer -> viewer : check response 200,201
end

group read_imaging_study
  viewer -> server : FHIR GET related ImagingStudy resource
  activate server #b3ffd7
  server  -> viewer: Return ImagingStudy resource
  deactivate server

  viewer -> viewer : check response 200,201
end
@enduml

PlantUML version 1.2022.4beta2(Unknown compile time)
(GPL source distribution)
Java Runtime: Java(TM) SE Runtime Environment
JVM: Java HotSpot(TM) 64-Bit Server VM
Default Encoding: UTF-8
Language: en
Country: US
--></g></svg>