<?xml version="1.0" encoding="UTF-8" standalone="no"?><svg xmlns="http://www.w3.org/2000/svg" xmlns:xlink="http://www.w3.org/1999/xlink" contentScriptType="application/ecmascript" contentStyleType="text/css" height="1622px" preserveAspectRatio="none" style="width:858px;height:1622px;background:#FFFFFF;" version="1.1" viewBox="0 0 858 1622" width="858px" zoomAndPan="magnify"><defs><filter height="300%" id="fbhhxme2qk37b" width="300%" x="-1" y="-1"><feGaussianBlur result="blurOut" stdDeviation="2.0"/><feColorMatrix in="blurOut" result="blurOut2" type="matrix" values="0 0 0 0 0 0 0 0 0 0 0 0 0 0 0 0 0 0 .4 0"/><feOffset dx="4.0" dy="4.0" in="blurOut2" result="blurOut3"/><feBlend in="SourceGraphic" in2="blurOut3" mode="normal"/></filter></defs><g><rect fill="#B3FFD7" filter="url(#fbhhxme2qk37b)" height="29.1328" style="stroke:#000000;stroke-width:1.0;" width="10" x="778.5" y="124.6953"/><rect fill="#B3FFD7" filter="url(#fbhhxme2qk37b)" height="29.1328" style="stroke:#000000;stroke-width:1.0;" width="10" x="778.5" y="298.3594"/><rect fill="#B3FFD7" filter="url(#fbhhxme2qk37b)" height="29.1328" style="stroke:#000000;stroke-width:1.0;" width="10" x="778.5" y="429.8906"/><rect fill="#B3FFD7" filter="url(#fbhhxme2qk37b)" height="29.1328" style="stroke:#000000;stroke-width:1.0;" width="10" x="778.5" y="561.4219"/><rect fill="#B3FFD7" filter="url(#fbhhxme2qk37b)" height="29.1328" style="stroke:#000000;stroke-width:1.0;" width="10" x="778.5" y="692.9531"/><rect fill="#B3FFD7" filter="url(#fbhhxme2qk37b)" height="29.1328" style="stroke:#000000;stroke-width:1.0;" width="10" x="778.5" y="824.4844"/><rect fill="#B3FFD7" filter="url(#fbhhxme2qk37b)" height="29.1328" style="stroke:#000000;stroke-width:1.0;" width="10" x="778.5" y="956.0156"/><rect fill="#B3FFD7" filter="url(#fbhhxme2qk37b)" height="29.1328" style="stroke:#000000;stroke-width:1.0;" width="10" x="778.5" y="1129.6797"/><rect fill="#B3FFD7" filter="url(#fbhhxme2qk37b)" height="29.1328" style="stroke:#000000;stroke-width:1.0;" width="10" x="778.5" y="1303.3438"/><rect fill="#B3FFD7" filter="url(#fbhhxme2qk37b)" height="29.1328" style="stroke:#000000;stroke-width:1.0;" width="10" x="778.5" y="1477.0078"/><rect fill="#FFFFFF" filter="url(#fbhhxme2qk37b)" height="159.6641" style="stroke:#000000;stroke-width:2.0;" width="567" x="277" y="86.4297"/><rect fill="#FFFFFF" filter="url(#fbhhxme2qk37b)" height="117.5313" style="stroke:#000000;stroke-width:2.0;" width="567" x="277" y="260.0938"/><rect fill="#FFFFFF" filter="url(#fbhhxme2qk37b)" height="117.5313" style="stroke:#000000;stroke-width:2.0;" width="567" x="277" y="391.625"/><rect fill="#FFFFFF" filter="url(#fbhhxme2qk37b)" height="117.5313" style="stroke:#000000;stroke-width:2.0;" width="567" x="277" y="523.1563"/><rect fill="#FFFFFF" filter="url(#fbhhxme2qk37b)" height="117.5313" style="stroke:#000000;stroke-width:2.0;" width="567" x="277" y="654.6875"/><rect fill="#FFFFFF" filter="url(#fbhhxme2qk37b)" height="117.5313" style="stroke:#000000;stroke-width:2.0;" width="567" x="277" y="786.2188"/><rect fill="#FFFFFF" filter="url(#fbhhxme2qk37b)" height="159.6641" style="stroke:#000000;stroke-width:2.0;" width="567" x="277" y="917.75"/><rect fill="#FFFFFF" filter="url(#fbhhxme2qk37b)" height="159.6641" style="stroke:#000000;stroke-width:2.0;" width="567" x="277" y="1091.4141"/><rect fill="#FFFFFF" filter="url(#fbhhxme2qk37b)" height="159.6641" style="stroke:#000000;stroke-width:2.0;" width="567" x="277" y="1265.0781"/><rect fill="#FFFFFF" filter="url(#fbhhxme2qk37b)" height="159.6641" style="stroke:#000000;stroke-width:2.0;" width="567" x="277" y="1438.7422"/><line style="stroke:#000000;stroke-width:1.0;stroke-dasharray:5.0,5.0;" x1="37" x2="37" y1="40.2969" y2="1615.4063"/><line style="stroke:#000000;stroke-width:1.0;stroke-dasharray:5.0,5.0;" x1="376" x2="376" y1="40.2969" y2="1615.4063"/><line style="stroke:#000000;stroke-width:1.0;stroke-dasharray:5.0,5.0;" x1="783" x2="783" y1="40.2969" y2="1615.4063"/><rect fill="#C9F4FF" filter="url(#fbhhxme2qk37b)" height="30.2969" style="stroke:#000000;stroke-width:1.5;" width="61" x="5" y="5"/><text fill="#000000" font-family="sans-serif" font-size="14" lengthAdjust="spacing" textLength="47" x="12" y="24.9951">Tester</text><rect fill="#C9F4FF" filter="url(#fbhhxme2qk37b)" height="30.2969" style="stroke:#000000;stroke-width:1.5;" width="175" x="287" y="5"/><text fill="#000000" font-family="sans-serif" font-size="14" lengthAdjust="spacing" textLength="161" x="294" y="24.9951">RDSC Simulator Script</text><rect fill="#C9F4FF" filter="url(#fbhhxme2qk37b)" height="30.2969" style="stroke:#000000;stroke-width:1.5;" width="97" x="733" y="5"/><text fill="#000000" font-family="sans-serif" font-size="14" lengthAdjust="spacing" textLength="83" x="740" y="24.9951">FHIR Server</text><rect fill="#B3FFD7" filter="url(#fbhhxme2qk37b)" height="29.1328" style="stroke:#000000;stroke-width:1.0;" width="10" x="778.5" y="124.6953"/><rect fill="#B3FFD7" filter="url(#fbhhxme2qk37b)" height="29.1328" style="stroke:#000000;stroke-width:1.0;" width="10" x="778.5" y="298.3594"/><rect fill="#B3FFD7" filter="url(#fbhhxme2qk37b)" height="29.1328" style="stroke:#000000;stroke-width:1.0;" width="10" x="778.5" y="429.8906"/><rect fill="#B3FFD7" filter="url(#fbhhxme2qk37b)" height="29.1328" style="stroke:#000000;stroke-width:1.0;" width="10" x="778.5" y="561.4219"/><rect fill="#B3FFD7" filter="url(#fbhhxme2qk37b)" height="29.1328" style="stroke:#000000;stroke-width:1.0;" width="10" x="778.5" y="692.9531"/><rect fill="#B3FFD7" filter="url(#fbhhxme2qk37b)" height="29.1328" style="stroke:#000000;stroke-width:1.0;" width="10" x="778.5" y="824.4844"/><rect fill="#B3FFD7" filter="url(#fbhhxme2qk37b)" height="29.1328" style="stroke:#000000;stroke-width:1.0;" width="10" x="778.5" y="956.0156"/><rect fill="#B3FFD7" filter="url(#fbhhxme2qk37b)" height="29.1328" style="stroke:#000000;stroke-width:1.0;" width="10" x="778.5" y="1129.6797"/><rect fill="#B3FFD7" filter="url(#fbhhxme2qk37b)" height="29.1328" style="stroke:#000000;stroke-width:1.0;" width="10" x="778.5" y="1303.3438"/><rect fill="#B3FFD7" filter="url(#fbhhxme2qk37b)" height="29.1328" style="stroke:#000000;stroke-width:1.0;" width="10" x="778.5" y="1477.0078"/><polygon fill="#005500" points="364.5,67.4297,374.5,71.4297,364.5,75.4297,368.5,71.4297" style="stroke:#005500;stroke-width:1.0;"/><line style="stroke:#005500;stroke-width:1.0;" x1="37.5" x2="370.5" y1="71.4297" y2="71.4297"/><text fill="#000000" font-family="sans-serif" font-size="13" lengthAdjust="spacing" textLength="315" x="49.5" y="66.3638">Provide Radiation Dose Summary Observation ID</text><path d="M277,86.4297 L391,86.4297 L391,93.4297 L381,103.4297 L277,103.4297 L277,86.4297 " fill="#EEEEEE" style="stroke:#000000;stroke-width:1.0;"/><rect fill="none" height="159.6641" style="stroke:#000000;stroke-width:2.0;" width="567" x="277" y="86.4297"/><text fill="#000000" font-family="sans-serif" font-size="13" font-weight="bold" lengthAdjust="spacing" textLength="69" x="292" y="99.4966">read RDS</text><polygon fill="#005500" points="766.5,120.6953,776.5,124.6953,766.5,128.6953,770.5,124.6953" style="stroke:#005500;stroke-width:1.0;"/><line style="stroke:#005500;stroke-width:1.0;" x1="376.5" x2="772.5" y1="124.6953" y2="124.6953"/><text fill="#000000" font-family="sans-serif" font-size="13" lengthAdjust="spacing" textLength="200" x="477.5" y="119.6294">FHIR GET Observation resource</text><polygon fill="#005500" points="387.5,149.8281,377.5,153.8281,387.5,157.8281,383.5,153.8281" style="stroke:#005500;stroke-width:1.0;"/><line style="stroke:#005500;stroke-width:1.0;" x1="381.5" x2="782.5" y1="153.8281" y2="153.8281"/><text fill="#000000" font-family="sans-serif" font-size="13" lengthAdjust="spacing" textLength="185" x="487.5" y="148.7622">Return Observation resource</text><line style="stroke:#005500;stroke-width:1.0;" x1="376.5" x2="418.5" y1="182.9609" y2="182.9609"/><line style="stroke:#005500;stroke-width:1.0;" x1="418.5" x2="418.5" y1="182.9609" y2="195.9609"/><line style="stroke:#005500;stroke-width:1.0;" x1="377.5" x2="418.5" y1="195.9609" y2="195.9609"/><polygon fill="#005500" points="387.5,191.9609,377.5,195.9609,387.5,199.9609,383.5,195.9609" style="stroke:#005500;stroke-width:1.0;"/><text fill="#000000" font-family="sans-serif" font-size="13" lengthAdjust="spacing" textLength="159" x="383.5" y="177.895">Check return code is 200</text><line style="stroke:#005500;stroke-width:1.0;" x1="376.5" x2="418.5" y1="225.0938" y2="225.0938"/><line style="stroke:#005500;stroke-width:1.0;" x1="418.5" x2="418.5" y1="225.0938" y2="238.0938"/><line style="stroke:#005500;stroke-width:1.0;" x1="377.5" x2="418.5" y1="238.0938" y2="238.0938"/><polygon fill="#005500" points="387.5,234.0938,377.5,238.0938,387.5,242.0938,383.5,238.0938" style="stroke:#005500;stroke-width:1.0;"/><text fill="#000000" font-family="sans-serif" font-size="13" lengthAdjust="spacing" textLength="207" x="383.5" y="220.0278">Check Observation/id not empty</text><path d="M277,260.0938 L435,260.0938 L435,267.0938 L425,277.0938 L277,277.0938 L277,260.0938 " fill="#EEEEEE" style="stroke:#000000;stroke-width:1.0;"/><rect fill="none" height="117.5313" style="stroke:#000000;stroke-width:2.0;" width="567" x="277" y="260.0938"/><text fill="#000000" font-family="sans-serif" font-size="13" font-weight="bold" lengthAdjust="spacing" textLength="113" x="292" y="273.1606">search_patient</text><polygon fill="#005500" points="766.5,294.3594,776.5,298.3594,766.5,302.3594,770.5,298.3594" style="stroke:#005500;stroke-width:1.0;"/><line style="stroke:#005500;stroke-width:1.0;" x1="376.5" x2="772.5" y1="298.3594" y2="298.3594"/><text fill="#000000" font-family="sans-serif" font-size="13" lengthAdjust="spacing" textLength="372" x="391.5" y="293.2935">FHIR SEARCH RadiationDoseSummary by patient attribute</text><polygon fill="#005500" points="387.5,323.4922,377.5,327.4922,387.5,331.4922,383.5,327.4922" style="stroke:#005500;stroke-width:1.0;"/><line style="stroke:#005500;stroke-width:1.0;" x1="381.5" x2="782.5" y1="327.4922" y2="327.4922"/><text fill="#000000" font-family="sans-serif" font-size="13" lengthAdjust="spacing" textLength="256" x="452" y="322.4263">Return Bundle of Observation resources</text><line style="stroke:#005500;stroke-width:1.0;" x1="376.5" x2="418.5" y1="356.625" y2="356.625"/><line style="stroke:#005500;stroke-width:1.0;" x1="418.5" x2="418.5" y1="356.625" y2="369.625"/><line style="stroke:#005500;stroke-width:1.0;" x1="377.5" x2="418.5" y1="369.625" y2="369.625"/><polygon fill="#005500" points="387.5,365.625,377.5,369.625,387.5,373.625,383.5,369.625" style="stroke:#005500;stroke-width:1.0;"/><text fill="#000000" font-family="sans-serif" font-size="13" lengthAdjust="spacing" textLength="143" x="383.5" y="351.5591">check Bundle.total &gt; 0</text><path d="M277,391.625 L426,391.625 L426,398.625 L416,408.625 L277,408.625 L277,391.625 " fill="#EEEEEE" style="stroke:#000000;stroke-width:1.0;"/><rect fill="none" height="117.5313" style="stroke:#000000;stroke-width:2.0;" width="567" x="277" y="391.625"/><text fill="#000000" font-family="sans-serif" font-size="13" font-weight="bold" lengthAdjust="spacing" textLength="104" x="292" y="404.6919">search_device</text><polygon fill="#005500" points="766.5,425.8906,776.5,429.8906,766.5,433.8906,770.5,429.8906" style="stroke:#005500;stroke-width:1.0;"/><line style="stroke:#005500;stroke-width:1.0;" x1="376.5" x2="772.5" y1="429.8906" y2="429.8906"/><text fill="#000000" font-family="sans-serif" font-size="13" lengthAdjust="spacing" textLength="369" x="393" y="424.8247">FHIR SEARCH RadiationDoseSummary by device attribute</text><polygon fill="#005500" points="387.5,455.0234,377.5,459.0234,387.5,463.0234,383.5,459.0234" style="stroke:#005500;stroke-width:1.0;"/><line style="stroke:#005500;stroke-width:1.0;" x1="381.5" x2="782.5" y1="459.0234" y2="459.0234"/><text fill="#000000" font-family="sans-serif" font-size="13" lengthAdjust="spacing" textLength="256" x="452" y="453.9575">Return Bundle of Observation resources</text><line style="stroke:#005500;stroke-width:1.0;" x1="376.5" x2="418.5" y1="488.1563" y2="488.1563"/><line style="stroke:#005500;stroke-width:1.0;" x1="418.5" x2="418.5" y1="488.1563" y2="501.1563"/><line style="stroke:#005500;stroke-width:1.0;" x1="377.5" x2="418.5" y1="501.1563" y2="501.1563"/><polygon fill="#005500" points="387.5,497.1563,377.5,501.1563,387.5,505.1563,383.5,501.1563" style="stroke:#005500;stroke-width:1.0;"/><text fill="#000000" font-family="sans-serif" font-size="13" lengthAdjust="spacing" textLength="143" x="383.5" y="483.0903">check Bundle.total &gt; 0</text><path d="M277,523.1563 L429,523.1563 L429,530.1563 L419,540.1563 L277,540.1563 L277,523.1563 " fill="#EEEEEE" style="stroke:#000000;stroke-width:1.0;"/><rect fill="none" height="117.5313" style="stroke:#000000;stroke-width:2.0;" width="567" x="277" y="523.1563"/><text fill="#000000" font-family="sans-serif" font-size="13" font-weight="bold" lengthAdjust="spacing" textLength="107" x="292" y="536.2231">search_partof</text><polygon fill="#005500" points="766.5,557.4219,776.5,561.4219,766.5,565.4219,770.5,561.4219" style="stroke:#005500;stroke-width:1.0;"/><line style="stroke:#005500;stroke-width:1.0;" x1="376.5" x2="772.5" y1="561.4219" y2="561.4219"/><text fill="#000000" font-family="sans-serif" font-size="13" lengthAdjust="spacing" textLength="371" x="392" y="556.356">FHIR SEARCH RadiationDoseSummary by part-of attribute</text><polygon fill="#005500" points="387.5,586.5547,377.5,590.5547,387.5,594.5547,383.5,590.5547" style="stroke:#005500;stroke-width:1.0;"/><line style="stroke:#005500;stroke-width:1.0;" x1="381.5" x2="782.5" y1="590.5547" y2="590.5547"/><text fill="#000000" font-family="sans-serif" font-size="13" lengthAdjust="spacing" textLength="256" x="452" y="585.4888">Return Bundle of Observation resources</text><line style="stroke:#005500;stroke-width:1.0;" x1="376.5" x2="418.5" y1="619.6875" y2="619.6875"/><line style="stroke:#005500;stroke-width:1.0;" x1="418.5" x2="418.5" y1="619.6875" y2="632.6875"/><line style="stroke:#005500;stroke-width:1.0;" x1="377.5" x2="418.5" y1="632.6875" y2="632.6875"/><polygon fill="#005500" points="387.5,628.6875,377.5,632.6875,387.5,636.6875,383.5,632.6875" style="stroke:#005500;stroke-width:1.0;"/><text fill="#000000" font-family="sans-serif" font-size="13" lengthAdjust="spacing" textLength="143" x="383.5" y="614.6216">check Bundle.total &gt; 0</text><path d="M277,654.6875 L449,654.6875 L449,661.6875 L439,671.6875 L277,671.6875 L277,654.6875 " fill="#EEEEEE" style="stroke:#000000;stroke-width:1.0;"/><rect fill="none" height="117.5313" style="stroke:#000000;stroke-width:2.0;" width="567" x="277" y="654.6875"/><text fill="#000000" font-family="sans-serif" font-size="13" font-weight="bold" lengthAdjust="spacing" textLength="127" x="292" y="667.7544">search_identifier</text><polygon fill="#005500" points="766.5,688.9531,776.5,692.9531,766.5,696.9531,770.5,692.9531" style="stroke:#005500;stroke-width:1.0;"/><line style="stroke:#005500;stroke-width:1.0;" x1="376.5" x2="772.5" y1="692.9531" y2="692.9531"/><text fill="#000000" font-family="sans-serif" font-size="13" lengthAdjust="spacing" textLength="383" x="386" y="687.8872">FHIR SEARCH RadiationDoseSummary by identifier attribute</text><polygon fill="#005500" points="387.5,718.0859,377.5,722.0859,387.5,726.0859,383.5,722.0859" style="stroke:#005500;stroke-width:1.0;"/><line style="stroke:#005500;stroke-width:1.0;" x1="381.5" x2="782.5" y1="722.0859" y2="722.0859"/><text fill="#000000" font-family="sans-serif" font-size="13" lengthAdjust="spacing" textLength="256" x="452" y="717.02">Return Bundle of Observation resources</text><line style="stroke:#005500;stroke-width:1.0;" x1="376.5" x2="418.5" y1="751.2188" y2="751.2188"/><line style="stroke:#005500;stroke-width:1.0;" x1="418.5" x2="418.5" y1="751.2188" y2="764.2188"/><line style="stroke:#005500;stroke-width:1.0;" x1="377.5" x2="418.5" y1="764.2188" y2="764.2188"/><polygon fill="#005500" points="387.5,760.2188,377.5,764.2188,387.5,768.2188,383.5,764.2188" style="stroke:#005500;stroke-width:1.0;"/><text fill="#000000" font-family="sans-serif" font-size="13" lengthAdjust="spacing" textLength="143" x="383.5" y="746.1528">check Bundle.total &gt; 0</text><path d="M277,786.2188 L414,786.2188 L414,793.2188 L404,803.2188 L277,803.2188 L277,786.2188 " fill="#EEEEEE" style="stroke:#000000;stroke-width:1.0;"/><rect fill="none" height="117.5313" style="stroke:#000000;stroke-width:2.0;" width="567" x="277" y="786.2188"/><text fill="#000000" font-family="sans-serif" font-size="13" font-weight="bold" lengthAdjust="spacing" textLength="92" x="292" y="799.2856">search_date</text><polygon fill="#005500" points="766.5,820.4844,776.5,824.4844,766.5,828.4844,770.5,824.4844" style="stroke:#005500;stroke-width:1.0;"/><line style="stroke:#005500;stroke-width:1.0;" x1="376.5" x2="772.5" y1="824.4844" y2="824.4844"/><text fill="#000000" font-family="sans-serif" font-size="13" lengthAdjust="spacing" textLength="356" x="399.5" y="819.4185">FHIR SEARCH RadiationDoseSummary by date attribute</text><polygon fill="#005500" points="387.5,849.6172,377.5,853.6172,387.5,857.6172,383.5,853.6172" style="stroke:#005500;stroke-width:1.0;"/><line style="stroke:#005500;stroke-width:1.0;" x1="381.5" x2="782.5" y1="853.6172" y2="853.6172"/><text fill="#000000" font-family="sans-serif" font-size="13" lengthAdjust="spacing" textLength="256" x="452" y="848.5513">Return Bundle of Observation resources</text><line style="stroke:#005500;stroke-width:1.0;" x1="376.5" x2="418.5" y1="882.75" y2="882.75"/><line style="stroke:#005500;stroke-width:1.0;" x1="418.5" x2="418.5" y1="882.75" y2="895.75"/><line style="stroke:#005500;stroke-width:1.0;" x1="377.5" x2="418.5" y1="895.75" y2="895.75"/><polygon fill="#005500" points="387.5,891.75,377.5,895.75,387.5,899.75,383.5,895.75" style="stroke:#005500;stroke-width:1.0;"/><text fill="#000000" font-family="sans-serif" font-size="13" lengthAdjust="spacing" textLength="143" x="383.5" y="877.6841">check Bundle.total &gt; 0</text><path d="M277,917.75 L418,917.75 L418,924.75 L408,934.75 L277,934.75 L277,917.75 " fill="#EEEEEE" style="stroke:#000000;stroke-width:1.0;"/><rect fill="none" height="159.6641" style="stroke:#000000;stroke-width:2.0;" width="567" x="277" y="917.75"/><text fill="#000000" font-family="sans-serif" font-size="13" font-weight="bold" lengthAdjust="spacing" textLength="96" x="292" y="930.8169">read Patient</text><polygon fill="#005500" points="766.5,952.0156,776.5,956.0156,766.5,960.0156,770.5,956.0156" style="stroke:#005500;stroke-width:1.0;"/><line style="stroke:#005500;stroke-width:1.0;" x1="376.5" x2="772.5" y1="956.0156" y2="956.0156"/><text fill="#000000" font-family="sans-serif" font-size="13" lengthAdjust="spacing" textLength="167" x="494" y="950.9497">FHIR GET Patient resource</text><polygon fill="#005500" points="387.5,981.1484,377.5,985.1484,387.5,989.1484,383.5,985.1484" style="stroke:#005500;stroke-width:1.0;"/><line style="stroke:#005500;stroke-width:1.0;" x1="381.5" x2="782.5" y1="985.1484" y2="985.1484"/><text fill="#000000" font-family="sans-serif" font-size="13" lengthAdjust="spacing" textLength="152" x="504" y="980.0825">Return Patient resource</text><line style="stroke:#005500;stroke-width:1.0;" x1="376.5" x2="418.5" y1="1014.2813" y2="1014.2813"/><line style="stroke:#005500;stroke-width:1.0;" x1="418.5" x2="418.5" y1="1014.2813" y2="1027.2813"/><line style="stroke:#005500;stroke-width:1.0;" x1="377.5" x2="418.5" y1="1027.2813" y2="1027.2813"/><polygon fill="#005500" points="387.5,1023.2813,377.5,1027.2813,387.5,1031.2813,383.5,1027.2813" style="stroke:#005500;stroke-width:1.0;"/><text fill="#000000" font-family="sans-serif" font-size="13" lengthAdjust="spacing" textLength="159" x="383.5" y="1009.2153">Check return code is 200</text><line style="stroke:#005500;stroke-width:1.0;" x1="376.5" x2="418.5" y1="1056.4141" y2="1056.4141"/><line style="stroke:#005500;stroke-width:1.0;" x1="418.5" x2="418.5" y1="1056.4141" y2="1069.4141"/><line style="stroke:#005500;stroke-width:1.0;" x1="377.5" x2="418.5" y1="1069.4141" y2="1069.4141"/><polygon fill="#005500" points="387.5,1065.4141,377.5,1069.4141,387.5,1073.4141,383.5,1069.4141" style="stroke:#005500;stroke-width:1.0;"/><text fill="#000000" font-family="sans-serif" font-size="13" lengthAdjust="spacing" textLength="174" x="383.5" y="1051.3481">Check Patient/id not empty</text><path d="M277,1091.4141 L410,1091.4141 L410,1098.4141 L400,1108.4141 L277,1108.4141 L277,1091.4141 " fill="#EEEEEE" style="stroke:#000000;stroke-width:1.0;"/><rect fill="none" height="159.6641" style="stroke:#000000;stroke-width:2.0;" width="567" x="277" y="1091.4141"/><text fill="#000000" font-family="sans-serif" font-size="13" font-weight="bold" lengthAdjust="spacing" textLength="88" x="292" y="1104.481">read Device</text><polygon fill="#005500" points="766.5,1125.6797,776.5,1129.6797,766.5,1133.6797,770.5,1129.6797" style="stroke:#005500;stroke-width:1.0;"/><line style="stroke:#005500;stroke-width:1.0;" x1="376.5" x2="772.5" y1="1129.6797" y2="1129.6797"/><text fill="#000000" font-family="sans-serif" font-size="13" lengthAdjust="spacing" textLength="166" x="494.5" y="1124.6138">FHIR GET Device resource</text><polygon fill="#005500" points="387.5,1154.8125,377.5,1158.8125,387.5,1162.8125,383.5,1158.8125" style="stroke:#005500;stroke-width:1.0;"/><line style="stroke:#005500;stroke-width:1.0;" x1="381.5" x2="782.5" y1="1158.8125" y2="1158.8125"/><text fill="#000000" font-family="sans-serif" font-size="13" lengthAdjust="spacing" textLength="151" x="504.5" y="1153.7466">Return Device resource</text><line style="stroke:#005500;stroke-width:1.0;" x1="376.5" x2="418.5" y1="1187.9453" y2="1187.9453"/><line style="stroke:#005500;stroke-width:1.0;" x1="418.5" x2="418.5" y1="1187.9453" y2="1200.9453"/><line style="stroke:#005500;stroke-width:1.0;" x1="377.5" x2="418.5" y1="1200.9453" y2="1200.9453"/><polygon fill="#005500" points="387.5,1196.9453,377.5,1200.9453,387.5,1204.9453,383.5,1200.9453" style="stroke:#005500;stroke-width:1.0;"/><text fill="#000000" font-family="sans-serif" font-size="13" lengthAdjust="spacing" textLength="159" x="383.5" y="1182.8794">Check return code is 200</text><line style="stroke:#005500;stroke-width:1.0;" x1="376.5" x2="418.5" y1="1230.0781" y2="1230.0781"/><line style="stroke:#005500;stroke-width:1.0;" x1="418.5" x2="418.5" y1="1230.0781" y2="1243.0781"/><line style="stroke:#005500;stroke-width:1.0;" x1="377.5" x2="418.5" y1="1243.0781" y2="1243.0781"/><polygon fill="#005500" points="387.5,1239.0781,377.5,1243.0781,387.5,1247.0781,383.5,1243.0781" style="stroke:#005500;stroke-width:1.0;"/><text fill="#000000" font-family="sans-serif" font-size="13" lengthAdjust="spacing" textLength="173" x="383.5" y="1225.0122">Check Device/id not empty</text><path d="M277,1265.0781 L454,1265.0781 L454,1272.0781 L444,1282.0781 L277,1282.0781 L277,1265.0781 " fill="#EEEEEE" style="stroke:#000000;stroke-width:1.0;"/><rect fill="none" height="159.6641" style="stroke:#000000;stroke-width:2.0;" width="567" x="277" y="1265.0781"/><text fill="#000000" font-family="sans-serif" font-size="13" font-weight="bold" lengthAdjust="spacing" textLength="132" x="292" y="1278.145">read Practitioner</text><polygon fill="#005500" points="766.5,1299.3438,776.5,1303.3438,766.5,1307.3438,770.5,1303.3438" style="stroke:#005500;stroke-width:1.0;"/><line style="stroke:#005500;stroke-width:1.0;" x1="376.5" x2="772.5" y1="1303.3438" y2="1303.3438"/><text fill="#000000" font-family="sans-serif" font-size="13" lengthAdjust="spacing" textLength="195" x="480" y="1298.2778">FHIR GET Practitioner resource</text><polygon fill="#005500" points="387.5,1328.4766,377.5,1332.4766,387.5,1336.4766,383.5,1332.4766" style="stroke:#005500;stroke-width:1.0;"/><line style="stroke:#005500;stroke-width:1.0;" x1="381.5" x2="782.5" y1="1332.4766" y2="1332.4766"/><text fill="#000000" font-family="sans-serif" font-size="13" lengthAdjust="spacing" textLength="180" x="490" y="1327.4106">Return Practitioner resource</text><line style="stroke:#005500;stroke-width:1.0;" x1="376.5" x2="418.5" y1="1361.6094" y2="1361.6094"/><line style="stroke:#005500;stroke-width:1.0;" x1="418.5" x2="418.5" y1="1361.6094" y2="1374.6094"/><line style="stroke:#005500;stroke-width:1.0;" x1="377.5" x2="418.5" y1="1374.6094" y2="1374.6094"/><polygon fill="#005500" points="387.5,1370.6094,377.5,1374.6094,387.5,1378.6094,383.5,1374.6094" style="stroke:#005500;stroke-width:1.0;"/><text fill="#000000" font-family="sans-serif" font-size="13" lengthAdjust="spacing" textLength="159" x="383.5" y="1356.5435">Check return code is 200</text><line style="stroke:#005500;stroke-width:1.0;" x1="376.5" x2="418.5" y1="1403.7422" y2="1403.7422"/><line style="stroke:#005500;stroke-width:1.0;" x1="418.5" x2="418.5" y1="1403.7422" y2="1416.7422"/><line style="stroke:#005500;stroke-width:1.0;" x1="377.5" x2="418.5" y1="1416.7422" y2="1416.7422"/><polygon fill="#005500" points="387.5,1412.7422,377.5,1416.7422,387.5,1420.7422,383.5,1416.7422" style="stroke:#005500;stroke-width:1.0;"/><text fill="#000000" font-family="sans-serif" font-size="13" lengthAdjust="spacing" textLength="202" x="383.5" y="1398.6763">Check Practitioner/id not empty</text><path d="M277,1438.7422 L463,1438.7422 L463,1445.7422 L453,1455.7422 L277,1455.7422 L277,1438.7422 " fill="#EEEEEE" style="stroke:#000000;stroke-width:1.0;"/><rect fill="none" height="159.6641" style="stroke:#000000;stroke-width:2.0;" width="567" x="277" y="1438.7422"/><text fill="#000000" font-family="sans-serif" font-size="13" font-weight="bold" lengthAdjust="spacing" textLength="141" x="292" y="1451.8091">read ImagingStudy</text><polygon fill="#005500" points="766.5,1473.0078,776.5,1477.0078,766.5,1481.0078,770.5,1477.0078" style="stroke:#005500;stroke-width:1.0;"/><line style="stroke:#005500;stroke-width:1.0;" x1="376.5" x2="772.5" y1="1477.0078" y2="1477.0078"/><text fill="#000000" font-family="sans-serif" font-size="13" lengthAdjust="spacing" textLength="210" x="472.5" y="1471.9419">FHIR GET ImagingStudy resource</text><polygon fill="#005500" points="387.5,1502.1406,377.5,1506.1406,387.5,1510.1406,383.5,1506.1406" style="stroke:#005500;stroke-width:1.0;"/><line style="stroke:#005500;stroke-width:1.0;" x1="381.5" x2="782.5" y1="1506.1406" y2="1506.1406"/><text fill="#000000" font-family="sans-serif" font-size="13" lengthAdjust="spacing" textLength="195" x="482.5" y="1501.0747">Return ImagingStudy resource</text><line style="stroke:#005500;stroke-width:1.0;" x1="376.5" x2="418.5" y1="1535.2734" y2="1535.2734"/><line style="stroke:#005500;stroke-width:1.0;" x1="418.5" x2="418.5" y1="1535.2734" y2="1548.2734"/><line style="stroke:#005500;stroke-width:1.0;" x1="377.5" x2="418.5" y1="1548.2734" y2="1548.2734"/><polygon fill="#005500" points="387.5,1544.2734,377.5,1548.2734,387.5,1552.2734,383.5,1548.2734" style="stroke:#005500;stroke-width:1.0;"/><text fill="#000000" font-family="sans-serif" font-size="13" lengthAdjust="spacing" textLength="159" x="383.5" y="1530.2075">Check return code is 200</text><line style="stroke:#005500;stroke-width:1.0;" x1="376.5" x2="418.5" y1="1577.4063" y2="1577.4063"/><line style="stroke:#005500;stroke-width:1.0;" x1="418.5" x2="418.5" y1="1577.4063" y2="1590.4063"/><line style="stroke:#005500;stroke-width:1.0;" x1="377.5" x2="418.5" y1="1590.4063" y2="1590.4063"/><polygon fill="#005500" points="387.5,1586.4063,377.5,1590.4063,387.5,1594.4063,383.5,1590.4063" style="stroke:#005500;stroke-width:1.0;"/><text fill="#000000" font-family="sans-serif" font-size="13" lengthAdjust="spacing" textLength="217" x="383.5" y="1572.3403">Check ImagingStudy/id not empty</text><!--MD5=[ea6902ae45720edb8e843ea353693c43]
@startuml
hide footbox
skinparam sequenceMessageAlign center
skinparam sequence {
ArrowColor #005500
LifeLineBorderColor Black
ActorFontColor Black
ActorBorderColor Black
ParticipantBorderColor Black
ParticipantBackgroundColor #c9f4ff
ActorBackgroundColor #c9f4ff
}

participant "Tester" as tester
participant "RDSC Simulator Script" as rdsp
participant "FHIR Server" as server

tester -> rdsp : Provide Radiation Dose Summary Observation ID

group read RDS
  rdsp -> server : FHIR GET Observation resource
  activate server #b3ffd7
  server  -> rdsp : Return Observation resource
  deactivate server
  rdsp -> rdsp : Check return code is 200
  rdsp -> rdsp : Check Observation/id not empty
end

group search_patient
  rdsp -> server : FHIR SEARCH RadiationDoseSummary by patient attribute
  activate server #b3ffd7
  server  -> rdsp : Return Bundle of Observation resources
  deactivate server

  rdsp -> rdsp : check Bundle.total > 0
end

group search_device
  rdsp -> server : FHIR SEARCH RadiationDoseSummary by device attribute
  activate server #b3ffd7
  server  -> rdsp : Return Bundle of Observation resources
  deactivate server

  rdsp -> rdsp : check Bundle.total > 0
end

group search_partof
  rdsp -> server : FHIR SEARCH RadiationDoseSummary by part-of attribute
  activate server #b3ffd7
  server  -> rdsp : Return Bundle of Observation resources
  deactivate server

  rdsp  -> rdsp  : check Bundle.total > 0
end

group search_identifier
  rdsp -> server : FHIR SEARCH RadiationDoseSummary by identifier attribute
  activate server #b3ffd7
  server  -> rdsp : Return Bundle of Observation resources
  deactivate server

  rdsp -> rdsp : check Bundle.total > 0
end

group search_date
  rdsp -> server : FHIR SEARCH RadiationDoseSummary by date attribute
  activate server #b3ffd7
  server  -> rdsp : Return Bundle of Observation resources
  deactivate server

  rdsp -> rdsp : check Bundle.total > 0
end

group read Patient
  rdsp -> server : FHIR GET Patient resource
  activate server #b3ffd7
  server  -> rdsp : Return Patient resource
  deactivate server
  rdsp -> rdsp : Check return code is 200
  rdsp -> rdsp : Check Patient/id not empty
end

group read Device
  rdsp -> server : FHIR GET Device resource
  activate server #b3ffd7
  server  -> rdsp : Return Device resource
  deactivate server
  rdsp -> rdsp : Check return code is 200
  rdsp -> rdsp : Check Device/id not empty
end

group read Practitioner
  rdsp -> server : FHIR GET Practitioner resource
  activate server #b3ffd7
  server  -> rdsp : Return Practitioner resource
  deactivate server
  rdsp -> rdsp : Check return code is 200
  rdsp -> rdsp : Check Practitioner/id not empty
end

group read ImagingStudy
  rdsp -> server : FHIR GET ImagingStudy resource
  activate server #b3ffd7
  server  -> rdsp : Return ImagingStudy resource
  deactivate server
  rdsp -> rdsp : Check return code is 200
  rdsp -> rdsp : Check ImagingStudy/id not empty
end
@enduml

PlantUML version 1.2021.10beta3(Unknown compile time)
(GPL source distribution)
Java Runtime: Java(TM) SE Runtime Environment
JVM: Java HotSpot(TM) 64-Bit Server VM
Default Encoding: UTF-8
Language: en
Country: US
--></g></svg>