<?xml version="1.0" encoding="UTF-8" standalone="no"?><svg xmlns="http://www.w3.org/2000/svg" xmlns:xlink="http://www.w3.org/1999/xlink" contentScriptType="application/ecmascript" contentStyleType="text/css" height="1196px" preserveAspectRatio="none" style="width:707px;height:1196px;background:#FFFFFF;" version="1.1" viewBox="0 0 707 1196" width="707px" zoomAndPan="magnify"><defs><filter height="300%" id="f1r6gso6616p1x" width="300%" x="-1" y="-1"><feGaussianBlur result="blurOut" stdDeviation="2.0"/><feColorMatrix in="blurOut" result="blurOut2" type="matrix" values="0 0 0 0 0 0 0 0 0 0 0 0 0 0 0 0 0 0 .4 0"/><feOffset dx="4.0" dy="4.0" in="blurOut2" result="blurOut3"/><feBlend in="SourceGraphic" in2="blurOut3" mode="normal"/></filter></defs><g><rect fill="#B3FFD7" filter="url(#f1r6gso6616p1x)" height="29.1328" style="stroke:#000000;stroke-width:1.0;" width="10" x="627.5" y="172.6953"/><rect fill="#B3FFD7" filter="url(#f1r6gso6616p1x)" height="29.1328" style="stroke:#000000;stroke-width:1.0;" width="10" x="627.5" y="304.2266"/><rect fill="#B3FFD7" filter="url(#f1r6gso6616p1x)" height="29.1328" style="stroke:#000000;stroke-width:1.0;" width="10" x="627.5" y="435.7578"/><rect fill="#B3FFD7" filter="url(#f1r6gso6616p1x)" height="29.1328" style="stroke:#000000;stroke-width:1.0;" width="10" x="627.5" y="567.2891"/><rect fill="#B3FFD7" filter="url(#f1r6gso6616p1x)" height="29.1328" style="stroke:#000000;stroke-width:1.0;" width="10" x="627.5" y="698.8203"/><rect fill="#B3FFD7" filter="url(#f1r6gso6616p1x)" height="29.1328" style="stroke:#000000;stroke-width:1.0;" width="10" x="627.5" y="830.3516"/><rect fill="#B3FFD7" filter="url(#f1r6gso6616p1x)" height="29.1328" style="stroke:#000000;stroke-width:1.0;" width="10" x="627.5" y="961.8828"/><rect fill="#B3FFD7" filter="url(#f1r6gso6616p1x)" height="29.1328" style="stroke:#000000;stroke-width:1.0;" width="10" x="627.5" y="1093.4141"/><rect fill="#FFFFFF" filter="url(#f1r6gso6616p1x)" height="117.5313" style="stroke:#000000;stroke-width:2.0;" width="548" x="145" y="134.4297"/><rect fill="#FFFFFF" filter="url(#f1r6gso6616p1x)" height="117.5313" style="stroke:#000000;stroke-width:2.0;" width="548" x="145" y="265.9609"/><rect fill="#FFFFFF" filter="url(#f1r6gso6616p1x)" height="117.5313" style="stroke:#000000;stroke-width:2.0;" width="548" x="145" y="397.4922"/><rect fill="#FFFFFF" filter="url(#f1r6gso6616p1x)" height="117.5313" style="stroke:#000000;stroke-width:2.0;" width="548" x="145" y="529.0234"/><rect fill="#FFFFFF" filter="url(#f1r6gso6616p1x)" height="117.5313" style="stroke:#000000;stroke-width:2.0;" width="548" x="145" y="660.5547"/><rect fill="#FFFFFF" filter="url(#f1r6gso6616p1x)" height="117.5313" style="stroke:#000000;stroke-width:2.0;" width="548" x="145" y="792.0859"/><rect fill="#FFFFFF" filter="url(#f1r6gso6616p1x)" height="117.5313" style="stroke:#000000;stroke-width:2.0;" width="548" x="145" y="923.6172"/><rect fill="#FFFFFF" filter="url(#f1r6gso6616p1x)" height="117.5313" style="stroke:#000000;stroke-width:2.0;" width="548" x="145" y="1055.1484"/><line style="stroke:#000000;stroke-width:1.0;stroke-dasharray:5.0,5.0;" x1="31" x2="31" y1="88.2969" y2="1189.6797"/><line style="stroke:#000000;stroke-width:1.0;stroke-dasharray:5.0,5.0;" x1="212" x2="212" y1="88.2969" y2="1189.6797"/><line style="stroke:#000000;stroke-width:1.0;stroke-dasharray:5.0,5.0;" x1="632" x2="632" y1="88.2969" y2="1189.6797"/><text fill="#000000" font-family="sans-serif" font-size="14" lengthAdjust="spacing" textLength="47" x="5" y="84.9951">Tester</text><ellipse cx="31.5" cy="15" fill="#C9F4FF" filter="url(#f1r6gso6616p1x)" rx="8" ry="8" style="stroke:#000000;stroke-width:2.0;"/><path d="M31.5,23 L31.5,50 M18.5,31 L44.5,31 M31.5,50 L18.5,65 M31.5,50 L44.5,65 " fill="none" filter="url(#f1r6gso6616p1x)" style="stroke:#000000;stroke-width:2.0;"/><rect fill="#C9F4FF" filter="url(#f1r6gso6616p1x)" height="30.2969" style="stroke:#000000;stroke-width:1.5;" width="111" x="155" y="53"/><text fill="#000000" font-family="sans-serif" font-size="14" lengthAdjust="spacing" textLength="97" x="162" y="72.9951">Viewer Script</text><rect fill="#C9F4FF" filter="url(#f1r6gso6616p1x)" height="30.2969" style="stroke:#000000;stroke-width:1.5;" width="97" x="582" y="53"/><text fill="#000000" font-family="sans-serif" font-size="14" lengthAdjust="spacing" textLength="83" x="589" y="72.9951">FHIR Server</text><rect fill="#B3FFD7" filter="url(#f1r6gso6616p1x)" height="29.1328" style="stroke:#000000;stroke-width:1.0;" width="10" x="627.5" y="172.6953"/><rect fill="#B3FFD7" filter="url(#f1r6gso6616p1x)" height="29.1328" style="stroke:#000000;stroke-width:1.0;" width="10" x="627.5" y="304.2266"/><rect fill="#B3FFD7" filter="url(#f1r6gso6616p1x)" height="29.1328" style="stroke:#000000;stroke-width:1.0;" width="10" x="627.5" y="435.7578"/><rect fill="#B3FFD7" filter="url(#f1r6gso6616p1x)" height="29.1328" style="stroke:#000000;stroke-width:1.0;" width="10" x="627.5" y="567.2891"/><rect fill="#B3FFD7" filter="url(#f1r6gso6616p1x)" height="29.1328" style="stroke:#000000;stroke-width:1.0;" width="10" x="627.5" y="698.8203"/><rect fill="#B3FFD7" filter="url(#f1r6gso6616p1x)" height="29.1328" style="stroke:#000000;stroke-width:1.0;" width="10" x="627.5" y="830.3516"/><rect fill="#B3FFD7" filter="url(#f1r6gso6616p1x)" height="29.1328" style="stroke:#000000;stroke-width:1.0;" width="10" x="627.5" y="961.8828"/><rect fill="#B3FFD7" filter="url(#f1r6gso6616p1x)" height="29.1328" style="stroke:#000000;stroke-width:1.0;" width="10" x="627.5" y="1093.4141"/><polygon fill="#005500" points="200.5,115.4297,210.5,119.4297,200.5,123.4297,204.5,119.4297" style="stroke:#005500;stroke-width:1.0;"/><line style="stroke:#005500;stroke-width:1.0;" x1="31.5" x2="206.5" y1="119.4297" y2="119.4297"/><text fill="#000000" font-family="sans-serif" font-size="13" lengthAdjust="spacing" textLength="157" x="43.5" y="114.3638">Provide ImagingStudy ID</text><path d="M145,134.4297 L224,134.4297 L224,141.4297 L214,151.4297 L145,151.4297 L145,134.4297 " fill="#EEEEEE" style="stroke:#000000;stroke-width:1.0;"/><rect fill="none" height="117.5313" style="stroke:#000000;stroke-width:2.0;" width="548" x="145" y="134.4297"/><text fill="#000000" font-family="sans-serif" font-size="13" font-weight="bold" lengthAdjust="spacing" textLength="34" x="160" y="147.4966">read</text><polygon fill="#005500" points="615.5,168.6953,625.5,172.6953,615.5,176.6953,619.5,172.6953" style="stroke:#005500;stroke-width:1.0;"/><line style="stroke:#005500;stroke-width:1.0;" x1="212.5" x2="621.5" y1="172.6953" y2="172.6953"/><text fill="#000000" font-family="sans-serif" font-size="13" lengthAdjust="spacing" textLength="210" x="315" y="167.6294">FHIR GET ImagingStudy resource</text><polygon fill="#005500" points="223.5,197.8281,213.5,201.8281,223.5,205.8281,219.5,201.8281" style="stroke:#005500;stroke-width:1.0;"/><line style="stroke:#005500;stroke-width:1.0;" x1="217.5" x2="631.5" y1="201.8281" y2="201.8281"/><text fill="#000000" font-family="sans-serif" font-size="13" lengthAdjust="spacing" textLength="195" x="325" y="196.7622">Return ImagingStudy resource</text><line style="stroke:#005500;stroke-width:1.0;" x1="212.5" x2="254.5" y1="230.9609" y2="230.9609"/><line style="stroke:#005500;stroke-width:1.0;" x1="254.5" x2="254.5" y1="230.9609" y2="243.9609"/><line style="stroke:#005500;stroke-width:1.0;" x1="213.5" x2="254.5" y1="243.9609" y2="243.9609"/><polygon fill="#005500" points="223.5,239.9609,213.5,243.9609,223.5,247.9609,219.5,243.9609" style="stroke:#005500;stroke-width:1.0;"/><text fill="#000000" font-family="sans-serif" font-size="13" lengthAdjust="spacing" textLength="157" x="219.5" y="225.895">check return code is 200</text><path d="M145,265.9609 L286,265.9609 L286,272.9609 L276,282.9609 L145,282.9609 L145,265.9609 " fill="#EEEEEE" style="stroke:#000000;stroke-width:1.0;"/><rect fill="none" height="117.5313" style="stroke:#000000;stroke-width:2.0;" width="548" x="145" y="265.9609"/><text fill="#000000" font-family="sans-serif" font-size="13" font-weight="bold" lengthAdjust="spacing" textLength="96" x="160" y="279.0278">read_subject</text><polygon fill="#005500" points="615.5,300.2266,625.5,304.2266,615.5,308.2266,619.5,304.2266" style="stroke:#005500;stroke-width:1.0;"/><line style="stroke:#005500;stroke-width:1.0;" x1="212.5" x2="621.5" y1="304.2266" y2="304.2266"/><text fill="#000000" font-family="sans-serif" font-size="13" lengthAdjust="spacing" textLength="210" x="315" y="299.1606">FHIR READ ImagingStudy.subject</text><polygon fill="#005500" points="223.5,329.3594,213.5,333.3594,223.5,337.3594,219.5,333.3594" style="stroke:#005500;stroke-width:1.0;"/><line style="stroke:#005500;stroke-width:1.0;" x1="217.5" x2="631.5" y1="333.3594" y2="333.3594"/><text fill="#000000" font-family="sans-serif" font-size="13" lengthAdjust="spacing" textLength="306" x="269.5" y="328.2935">Return referenced resource by subject attribute</text><line style="stroke:#005500;stroke-width:1.0;" x1="212.5" x2="254.5" y1="362.4922" y2="362.4922"/><line style="stroke:#005500;stroke-width:1.0;" x1="254.5" x2="254.5" y1="362.4922" y2="375.4922"/><line style="stroke:#005500;stroke-width:1.0;" x1="213.5" x2="254.5" y1="375.4922" y2="375.4922"/><polygon fill="#005500" points="223.5,371.4922,213.5,375.4922,223.5,379.4922,219.5,375.4922" style="stroke:#005500;stroke-width:1.0;"/><text fill="#000000" font-family="sans-serif" font-size="13" lengthAdjust="spacing" textLength="157" x="219.5" y="357.4263">check return code is 200</text><path d="M145,397.4922 L309,397.4922 L309,404.4922 L299,414.4922 L145,414.4922 L145,397.4922 " fill="#EEEEEE" style="stroke:#000000;stroke-width:1.0;"/><rect fill="none" height="117.5313" style="stroke:#000000;stroke-width:2.0;" width="548" x="145" y="397.4922"/><text fill="#000000" font-family="sans-serif" font-size="13" font-weight="bold" lengthAdjust="spacing" textLength="119" x="160" y="410.5591">read_encounter</text><polygon fill="#005500" points="615.5,431.7578,625.5,435.7578,615.5,439.7578,619.5,435.7578" style="stroke:#005500;stroke-width:1.0;"/><line style="stroke:#005500;stroke-width:1.0;" x1="212.5" x2="621.5" y1="435.7578" y2="435.7578"/><text fill="#000000" font-family="sans-serif" font-size="13" lengthAdjust="spacing" textLength="229" x="305.5" y="430.6919">FHIR READ ImagingStudy.encounter</text><polygon fill="#005500" points="223.5,460.8906,213.5,464.8906,223.5,468.8906,219.5,464.8906" style="stroke:#005500;stroke-width:1.0;"/><line style="stroke:#005500;stroke-width:1.0;" x1="217.5" x2="631.5" y1="464.8906" y2="464.8906"/><text fill="#000000" font-family="sans-serif" font-size="13" lengthAdjust="spacing" textLength="325" x="260" y="459.8247">Return referenced resource by encounter attribute</text><line style="stroke:#005500;stroke-width:1.0;" x1="212.5" x2="254.5" y1="494.0234" y2="494.0234"/><line style="stroke:#005500;stroke-width:1.0;" x1="254.5" x2="254.5" y1="494.0234" y2="507.0234"/><line style="stroke:#005500;stroke-width:1.0;" x1="213.5" x2="254.5" y1="507.0234" y2="507.0234"/><polygon fill="#005500" points="223.5,503.0234,213.5,507.0234,223.5,511.0234,219.5,507.0234" style="stroke:#005500;stroke-width:1.0;"/><text fill="#000000" font-family="sans-serif" font-size="13" lengthAdjust="spacing" textLength="157" x="219.5" y="488.9575">check return code is 200</text><path d="M145,529.0234 L294,529.0234 L294,536.0234 L284,546.0234 L145,546.0234 L145,529.0234 " fill="#EEEEEE" style="stroke:#000000;stroke-width:1.0;"/><rect fill="none" height="117.5313" style="stroke:#000000;stroke-width:2.0;" width="548" x="145" y="529.0234"/><text fill="#000000" font-family="sans-serif" font-size="13" font-weight="bold" lengthAdjust="spacing" textLength="104" x="160" y="542.0903">read_basedon</text><polygon fill="#005500" points="615.5,563.2891,625.5,567.2891,615.5,571.2891,619.5,567.2891" style="stroke:#005500;stroke-width:1.0;"/><line style="stroke:#005500;stroke-width:1.0;" x1="212.5" x2="621.5" y1="567.2891" y2="567.2891"/><text fill="#000000" font-family="sans-serif" font-size="13" lengthAdjust="spacing" textLength="219" x="310.5" y="562.2231">FHIR READ ImagingStudy.basedon</text><polygon fill="#005500" points="223.5,592.4219,213.5,596.4219,223.5,600.4219,219.5,596.4219" style="stroke:#005500;stroke-width:1.0;"/><line style="stroke:#005500;stroke-width:1.0;" x1="217.5" x2="631.5" y1="596.4219" y2="596.4219"/><text fill="#000000" font-family="sans-serif" font-size="13" lengthAdjust="spacing" textLength="315" x="265" y="591.356">Return referenced resource by basedon attribute</text><line style="stroke:#005500;stroke-width:1.0;" x1="212.5" x2="254.5" y1="625.5547" y2="625.5547"/><line style="stroke:#005500;stroke-width:1.0;" x1="254.5" x2="254.5" y1="625.5547" y2="638.5547"/><line style="stroke:#005500;stroke-width:1.0;" x1="213.5" x2="254.5" y1="638.5547" y2="638.5547"/><polygon fill="#005500" points="223.5,634.5547,213.5,638.5547,223.5,642.5547,219.5,638.5547" style="stroke:#005500;stroke-width:1.0;"/><text fill="#000000" font-family="sans-serif" font-size="13" lengthAdjust="spacing" textLength="157" x="219.5" y="620.4888">check return code is 200</text><path d="M145,660.5547 L293,660.5547 L293,667.5547 L283,677.5547 L145,677.5547 L145,660.5547 " fill="#EEEEEE" style="stroke:#000000;stroke-width:1.0;"/><rect fill="none" height="117.5313" style="stroke:#000000;stroke-width:2.0;" width="548" x="145" y="660.5547"/><text fill="#000000" font-family="sans-serif" font-size="13" font-weight="bold" lengthAdjust="spacing" textLength="103" x="160" y="673.6216">read_referrer</text><polygon fill="#005500" points="615.5,694.8203,625.5,698.8203,615.5,702.8203,619.5,698.8203" style="stroke:#005500;stroke-width:1.0;"/><line style="stroke:#005500;stroke-width:1.0;" x1="212.5" x2="621.5" y1="698.8203" y2="698.8203"/><text fill="#000000" font-family="sans-serif" font-size="13" lengthAdjust="spacing" textLength="213" x="313.5" y="693.7544">FHIR READ ImagingStudy.referrer</text><polygon fill="#005500" points="223.5,723.9531,213.5,727.9531,223.5,731.9531,219.5,727.9531" style="stroke:#005500;stroke-width:1.0;"/><line style="stroke:#005500;stroke-width:1.0;" x1="217.5" x2="631.5" y1="727.9531" y2="727.9531"/><text fill="#000000" font-family="sans-serif" font-size="13" lengthAdjust="spacing" textLength="309" x="268" y="722.8872">Return referenced resource by referrer attribute</text><line style="stroke:#005500;stroke-width:1.0;" x1="212.5" x2="254.5" y1="757.0859" y2="757.0859"/><line style="stroke:#005500;stroke-width:1.0;" x1="254.5" x2="254.5" y1="757.0859" y2="770.0859"/><line style="stroke:#005500;stroke-width:1.0;" x1="213.5" x2="254.5" y1="770.0859" y2="770.0859"/><polygon fill="#005500" points="223.5,766.0859,213.5,770.0859,223.5,774.0859,219.5,770.0859" style="stroke:#005500;stroke-width:1.0;"/><text fill="#000000" font-family="sans-serif" font-size="13" lengthAdjust="spacing" textLength="157" x="219.5" y="752.02">check return code is 200</text><path d="M145,792.0859 L317,792.0859 L317,799.0859 L307,809.0859 L145,809.0859 L145,792.0859 " fill="#EEEEEE" style="stroke:#000000;stroke-width:1.0;"/><rect fill="none" height="117.5313" style="stroke:#000000;stroke-width:2.0;" width="548" x="145" y="792.0859"/><text fill="#000000" font-family="sans-serif" font-size="13" font-weight="bold" lengthAdjust="spacing" textLength="127" x="160" y="805.1528">read_interpreter</text><polygon fill="#005500" points="615.5,826.3516,625.5,830.3516,615.5,834.3516,619.5,830.3516" style="stroke:#005500;stroke-width:1.0;"/><line style="stroke:#005500;stroke-width:1.0;" x1="212.5" x2="621.5" y1="830.3516" y2="830.3516"/><text fill="#000000" font-family="sans-serif" font-size="13" lengthAdjust="spacing" textLength="232" x="304" y="825.2856">FHIR READ ImagingStudy.interpreter</text><polygon fill="#005500" points="223.5,855.4844,213.5,859.4844,223.5,863.4844,219.5,859.4844" style="stroke:#005500;stroke-width:1.0;"/><line style="stroke:#005500;stroke-width:1.0;" x1="217.5" x2="631.5" y1="859.4844" y2="859.4844"/><text fill="#000000" font-family="sans-serif" font-size="13" lengthAdjust="spacing" textLength="328" x="258.5" y="854.4185">Return referenced resource by interpreter attribute</text><line style="stroke:#005500;stroke-width:1.0;" x1="212.5" x2="254.5" y1="888.6172" y2="888.6172"/><line style="stroke:#005500;stroke-width:1.0;" x1="254.5" x2="254.5" y1="888.6172" y2="901.6172"/><line style="stroke:#005500;stroke-width:1.0;" x1="213.5" x2="254.5" y1="901.6172" y2="901.6172"/><polygon fill="#005500" points="223.5,897.6172,213.5,901.6172,223.5,905.6172,219.5,901.6172" style="stroke:#005500;stroke-width:1.0;"/><text fill="#000000" font-family="sans-serif" font-size="13" lengthAdjust="spacing" textLength="157" x="219.5" y="883.5513">check return code is 200</text><path d="M145,923.6172 L385,923.6172 L385,930.6172 L375,940.6172 L145,940.6172 L145,923.6172 " fill="#EEEEEE" style="stroke:#000000;stroke-width:1.0;"/><rect fill="none" height="117.5313" style="stroke:#000000;stroke-width:2.0;" width="548" x="145" y="923.6172"/><text fill="#000000" font-family="sans-serif" font-size="13" font-weight="bold" lengthAdjust="spacing" textLength="195" x="160" y="936.6841">read_procedureReference</text><polygon fill="#005500" points="615.5,957.8828,625.5,961.8828,615.5,965.8828,619.5,961.8828" style="stroke:#005500;stroke-width:1.0;"/><line style="stroke:#005500;stroke-width:1.0;" x1="212.5" x2="621.5" y1="961.8828" y2="961.8828"/><text fill="#000000" font-family="sans-serif" font-size="13" lengthAdjust="spacing" textLength="295" x="272.5" y="956.8169">FHIR READ ImagingStudy.procedureReference</text><polygon fill="#005500" points="223.5,987.0156,213.5,991.0156,223.5,995.0156,219.5,991.0156" style="stroke:#005500;stroke-width:1.0;"/><line style="stroke:#005500;stroke-width:1.0;" x1="217.5" x2="631.5" y1="991.0156" y2="991.0156"/><text fill="#000000" font-family="sans-serif" font-size="13" lengthAdjust="spacing" textLength="391" x="227" y="985.9497">Return referenced resource by procedureReference attribute</text><line style="stroke:#005500;stroke-width:1.0;" x1="212.5" x2="254.5" y1="1020.1484" y2="1020.1484"/><line style="stroke:#005500;stroke-width:1.0;" x1="254.5" x2="254.5" y1="1020.1484" y2="1033.1484"/><line style="stroke:#005500;stroke-width:1.0;" x1="213.5" x2="254.5" y1="1033.1484" y2="1033.1484"/><polygon fill="#005500" points="223.5,1029.1484,213.5,1033.1484,223.5,1037.1484,219.5,1033.1484" style="stroke:#005500;stroke-width:1.0;"/><text fill="#000000" font-family="sans-serif" font-size="13" lengthAdjust="spacing" textLength="157" x="219.5" y="1015.0825">check return code is 200</text><path d="M145,1055.1484 L360,1055.1484 L360,1062.1484 L350,1072.1484 L145,1072.1484 L145,1055.1484 " fill="#EEEEEE" style="stroke:#000000;stroke-width:1.0;"/><rect fill="none" height="117.5313" style="stroke:#000000;stroke-width:2.0;" width="548" x="145" y="1055.1484"/><text fill="#000000" font-family="sans-serif" font-size="13" font-weight="bold" lengthAdjust="spacing" textLength="170" x="160" y="1068.2153">read_reasonReference</text><polygon fill="#005500" points="615.5,1089.4141,625.5,1093.4141,615.5,1097.4141,619.5,1093.4141" style="stroke:#005500;stroke-width:1.0;"/><line style="stroke:#005500;stroke-width:1.0;" x1="212.5" x2="621.5" y1="1093.4141" y2="1093.4141"/><text fill="#000000" font-family="sans-serif" font-size="13" lengthAdjust="spacing" textLength="274" x="283" y="1088.3481">FHIR READ ImagingStudy.reasonReference</text><polygon fill="#005500" points="223.5,1118.5469,213.5,1122.5469,223.5,1126.5469,219.5,1122.5469" style="stroke:#005500;stroke-width:1.0;"/><line style="stroke:#005500;stroke-width:1.0;" x1="217.5" x2="631.5" y1="1122.5469" y2="1122.5469"/><text fill="#000000" font-family="sans-serif" font-size="13" lengthAdjust="spacing" textLength="370" x="237.5" y="1117.481">Return referenced resource by reasonReference attribute</text><line style="stroke:#005500;stroke-width:1.0;" x1="212.5" x2="254.5" y1="1151.6797" y2="1151.6797"/><line style="stroke:#005500;stroke-width:1.0;" x1="254.5" x2="254.5" y1="1151.6797" y2="1164.6797"/><line style="stroke:#005500;stroke-width:1.0;" x1="213.5" x2="254.5" y1="1164.6797" y2="1164.6797"/><polygon fill="#005500" points="223.5,1160.6797,213.5,1164.6797,223.5,1168.6797,219.5,1164.6797" style="stroke:#005500;stroke-width:1.0;"/><text fill="#000000" font-family="sans-serif" font-size="13" lengthAdjust="spacing" textLength="157" x="219.5" y="1146.6138">check return code is 200</text><!--MD5=[d198e1334b898b0adfe43bf5c24eb4c0]
@startuml
hide footbox
skinparam sequenceMessageAlign center
skinparam sequence {
ArrowColor #005500
LifeLineBorderColor Black
ActorFontColor Black
ActorBorderColor Black
ParticipantBorderColor Black
ParticipantBackgroundColor #c9f4ff
ActorBackgroundColor #c9f4ff
}

actor "Tester" as tester
participant "Viewer Script" as viewer
participant "FHIR Server" as server

tester -> viewer : Provide ImagingStudy ID

group read
  viewer -> server : FHIR GET ImagingStudy resource
  activate server #b3ffd7
  server  -> viewer: Return ImagingStudy resource
  deactivate server
  viewer -> viewer : check return code is 200
end

group read_subject
  viewer -> server : FHIR READ ImagingStudy.subject
  activate server #b3ffd7
  server  -> viewer: Return referenced resource by subject attribute
  deactivate server
  viewer -> viewer : check return code is 200
end

group read_encounter
  viewer -> server : FHIR READ ImagingStudy.encounter
  activate server #b3ffd7
  server  -> viewer: Return referenced resource by encounter attribute
  deactivate server
  viewer -> viewer : check return code is 200
end

group read_basedon
  viewer -> server : FHIR READ ImagingStudy.basedon
  activate server #b3ffd7
  server  -> viewer: Return referenced resource by basedon attribute
  deactivate server
  viewer -> viewer : check return code is 200
end

group read_referrer
  viewer -> server : FHIR READ ImagingStudy.referrer
  activate server #b3ffd7
  server  -> viewer: Return referenced resource by referrer attribute
  deactivate server
  viewer -> viewer : check return code is 200
end

group read_interpreter
  viewer -> server : FHIR READ ImagingStudy.interpreter
  activate server #b3ffd7
  server  -> viewer: Return referenced resource by interpreter attribute
  deactivate server
  viewer -> viewer : check return code is 200
end

group read_procedureReference
  viewer -> server : FHIR READ ImagingStudy.procedureReference
  activate server #b3ffd7
  server  -> viewer: Return referenced resource by procedureReference attribute
  deactivate server
  viewer -> viewer : check return code is 200
end

group read_reasonReference
  viewer -> server : FHIR READ ImagingStudy.reasonReference
  activate server #b3ffd7
  server  -> viewer: Return referenced resource by reasonReference attribute
  deactivate server
  viewer -> viewer : check return code is 200
end
@enduml

PlantUML version 1.2021.10beta3(Unknown compile time)
(GPL source distribution)
Java Runtime: Java(TM) SE Runtime Environment
JVM: Java HotSpot(TM) 64-Bit Server VM
Default Encoding: UTF-8
Language: en
Country: US
--></g></svg>