<?xml version="1.0" encoding="UTF-8" standalone="no"?><svg xmlns="http://www.w3.org/2000/svg" xmlns:xlink="http://www.w3.org/1999/xlink" contentScriptType="application/ecmascript" contentStyleType="text/css" height="841px" preserveAspectRatio="none" style="width:908px;height:841px;background:#FFFFFF;" version="1.1" viewBox="0 0 908 841" width="908px" zoomAndPan="magnify"><defs><filter height="300%" id="f1hkz5eadt89s2" width="300%" x="-1" y="-1"><feGaussianBlur result="blurOut" stdDeviation="2.0"/><feColorMatrix in="blurOut" result="blurOut2" type="matrix" values="0 0 0 0 0 0 0 0 0 0 0 0 0 0 0 0 0 0 .4 0"/><feOffset dx="4.0" dy="4.0" in="blurOut2" result="blurOut3"/><feBlend in="SourceGraphic" in2="blurOut3" mode="normal"/></filter></defs><g><rect fill="#B3FFD7" filter="url(#f1hkz5eadt89s2)" height="29.1328" style="stroke:#000000;stroke-width:1.0;" width="10" x="828.5" y="212.0938"/><rect fill="#B3FFD7" filter="url(#f1hkz5eadt89s2)" height="29.1328" style="stroke:#000000;stroke-width:1.0;" width="10" x="828.5" y="343.625"/><rect fill="#B3FFD7" filter="url(#f1hkz5eadt89s2)" height="29.1328" style="stroke:#000000;stroke-width:1.0;" width="10" x="828.5" y="475.1563"/><rect fill="#B3FFD7" filter="url(#f1hkz5eadt89s2)" height="29.1328" style="stroke:#000000;stroke-width:1.0;" width="10" x="828.5" y="606.6875"/><rect fill="#B3FFD7" filter="url(#f1hkz5eadt89s2)" height="29.1328" style="stroke:#000000;stroke-width:1.0;" width="10" x="828.5" y="738.2188"/><rect fill="#FFFFFF" filter="url(#f1hkz5eadt89s2)" height="117.5313" style="stroke:#000000;stroke-width:2.0;" width="686.5" x="207.5" y="173.8281"/><rect fill="#FFFFFF" filter="url(#f1hkz5eadt89s2)" height="117.5313" style="stroke:#000000;stroke-width:2.0;" width="686.5" x="207.5" y="305.3594"/><rect fill="#FFFFFF" filter="url(#f1hkz5eadt89s2)" height="117.5313" style="stroke:#000000;stroke-width:2.0;" width="686.5" x="207.5" y="436.8906"/><rect fill="#FFFFFF" filter="url(#f1hkz5eadt89s2)" height="117.5313" style="stroke:#000000;stroke-width:2.0;" width="686.5" x="207.5" y="568.4219"/><rect fill="#FFFFFF" filter="url(#f1hkz5eadt89s2)" height="117.5313" style="stroke:#000000;stroke-width:2.0;" width="686.5" x="207.5" y="699.9531"/><line style="stroke:#000000;stroke-width:1.0;stroke-dasharray:5.0,5.0;" x1="37" x2="37" y1="40.2969" y2="834.4844"/><line style="stroke:#000000;stroke-width:1.0;stroke-dasharray:5.0,5.0;" x1="292.5" x2="292.5" y1="40.2969" y2="834.4844"/><line style="stroke:#000000;stroke-width:1.0;stroke-dasharray:5.0,5.0;" x1="833" x2="833" y1="40.2969" y2="834.4844"/><rect fill="#C9F4FF" filter="url(#f1hkz5eadt89s2)" height="30.2969" style="stroke:#000000;stroke-width:1.5;" width="61" x="5" y="5"/><text fill="#000000" font-family="sans-serif" font-size="14" lengthAdjust="spacing" textLength="47" x="12" y="24.9951">Tester</text><rect fill="#C9F4FF" filter="url(#f1hkz5eadt89s2)" height="30.2969" style="stroke:#000000;stroke-width:1.5;" width="146" x="217.5" y="5"/><text fill="#000000" font-family="sans-serif" font-size="14" lengthAdjust="spacing" textLength="132" x="224.5" y="24.9951">Verification Script</text><rect fill="#C9F4FF" filter="url(#f1hkz5eadt89s2)" height="30.2969" style="stroke:#000000;stroke-width:1.5;" width="97" x="783" y="5"/><text fill="#000000" font-family="sans-serif" font-size="14" lengthAdjust="spacing" textLength="83" x="790" y="24.9951">FHIR Server</text><rect fill="#B3FFD7" filter="url(#f1hkz5eadt89s2)" height="29.1328" style="stroke:#000000;stroke-width:1.0;" width="10" x="828.5" y="212.0938"/><rect fill="#B3FFD7" filter="url(#f1hkz5eadt89s2)" height="29.1328" style="stroke:#000000;stroke-width:1.0;" width="10" x="828.5" y="343.625"/><rect fill="#B3FFD7" filter="url(#f1hkz5eadt89s2)" height="29.1328" style="stroke:#000000;stroke-width:1.0;" width="10" x="828.5" y="475.1563"/><rect fill="#B3FFD7" filter="url(#f1hkz5eadt89s2)" height="29.1328" style="stroke:#000000;stroke-width:1.0;" width="10" x="828.5" y="606.6875"/><rect fill="#B3FFD7" filter="url(#f1hkz5eadt89s2)" height="29.1328" style="stroke:#000000;stroke-width:1.0;" width="10" x="828.5" y="738.2188"/><polygon fill="#005500" points="280.5,67.4297,290.5,71.4297,280.5,75.4297,284.5,71.4297" style="stroke:#005500;stroke-width:1.0;"/><line style="stroke:#005500;stroke-width:1.0;" x1="37.5" x2="286.5" y1="71.4297" y2="71.4297"/><text fill="#000000" font-family="sans-serif" font-size="13" lengthAdjust="spacing" textLength="157" x="86.5" y="66.3638">Provide Patient identifier</text><polygon fill="#005500" points="280.5,96.5625,290.5,100.5625,280.5,104.5625,284.5,100.5625" style="stroke:#005500;stroke-width:1.0;"/><line style="stroke:#005500;stroke-width:1.0;" x1="37.5" x2="286.5" y1="100.5625" y2="100.5625"/><text fill="#000000" font-family="sans-serif" font-size="13" lengthAdjust="spacing" textLength="154" x="88" y="95.4966">Provide device identifier</text><polygon fill="#005500" points="280.5,125.6953,290.5,129.6953,280.5,133.6953,284.5,129.6953" style="stroke:#005500;stroke-width:1.0;"/><line style="stroke:#005500;stroke-width:1.0;" x1="37.5" x2="286.5" y1="129.6953" y2="129.6953"/><text fill="#000000" font-family="sans-serif" font-size="13" lengthAdjust="spacing" textLength="185" x="72.5" y="124.6294">Provide practitioner identifier</text><polygon fill="#005500" points="280.5,154.8281,290.5,158.8281,280.5,162.8281,284.5,158.8281" style="stroke:#005500;stroke-width:1.0;"/><line style="stroke:#005500;stroke-width:1.0;" x1="37.5" x2="286.5" y1="158.8281" y2="158.8281"/><text fill="#000000" font-family="sans-serif" font-size="13" lengthAdjust="spacing" textLength="231" x="49.5" y="153.7622">Provide study-instance-uid identifier</text><path d="M207.5,173.8281 L365.5,173.8281 L365.5,180.8281 L355.5,190.8281 L207.5,190.8281 L207.5,173.8281 " fill="#EEEEEE" style="stroke:#000000;stroke-width:1.0;"/><rect fill="none" height="117.5313" style="stroke:#000000;stroke-width:2.0;" width="686.5" x="207.5" y="173.8281"/><text fill="#000000" font-family="sans-serif" font-size="13" font-weight="bold" lengthAdjust="spacing" textLength="113" x="222.5" y="186.895">search_patient</text><polygon fill="#005500" points="816.5,208.0938,826.5,212.0938,816.5,216.0938,820.5,212.0938" style="stroke:#005500;stroke-width:1.0;"/><line style="stroke:#005500;stroke-width:1.0;" x1="292.5" x2="822.5" y1="212.0938" y2="212.0938"/><text fill="#000000" font-family="sans-serif" font-size="13" lengthAdjust="spacing" textLength="272" x="424.5" y="207.0278">FHIR SEARCH Patient by identifier attribute</text><polygon fill="#005500" points="303.5,237.2266,293.5,241.2266,303.5,245.2266,299.5,241.2266" style="stroke:#005500;stroke-width:1.0;"/><line style="stroke:#005500;stroke-width:1.0;" x1="297.5" x2="832.5" y1="241.2266" y2="241.2266"/><text fill="#000000" font-family="sans-serif" font-size="13" lengthAdjust="spacing" textLength="256" x="435" y="236.1606">Return Bundle of Observation resources</text><line style="stroke:#005500;stroke-width:1.0;" x1="292.5" x2="334.5" y1="270.3594" y2="270.3594"/><line style="stroke:#005500;stroke-width:1.0;" x1="334.5" x2="334.5" y1="270.3594" y2="283.3594"/><line style="stroke:#005500;stroke-width:1.0;" x1="293.5" x2="334.5" y1="283.3594" y2="283.3594"/><polygon fill="#005500" points="303.5,279.3594,293.5,283.3594,303.5,287.3594,299.5,283.3594" style="stroke:#005500;stroke-width:1.0;"/><text fill="#000000" font-family="sans-serif" font-size="13" lengthAdjust="spacing" textLength="143" x="299.5" y="265.2935">check Bundle.total &gt; 0</text><path d="M207.5,305.3594 L356.5,305.3594 L356.5,312.3594 L346.5,322.3594 L207.5,322.3594 L207.5,305.3594 " fill="#EEEEEE" style="stroke:#000000;stroke-width:1.0;"/><rect fill="none" height="117.5313" style="stroke:#000000;stroke-width:2.0;" width="686.5" x="207.5" y="305.3594"/><text fill="#000000" font-family="sans-serif" font-size="13" font-weight="bold" lengthAdjust="spacing" textLength="104" x="222.5" y="318.4263">search_device</text><polygon fill="#005500" points="816.5,339.625,826.5,343.625,816.5,347.625,820.5,343.625" style="stroke:#005500;stroke-width:1.0;"/><line style="stroke:#005500;stroke-width:1.0;" x1="292.5" x2="822.5" y1="343.625" y2="343.625"/><text fill="#000000" font-family="sans-serif" font-size="13" lengthAdjust="spacing" textLength="271" x="425" y="338.5591">FHIR SEARCH Device by identifier attribute</text><polygon fill="#005500" points="303.5,368.7578,293.5,372.7578,303.5,376.7578,299.5,372.7578" style="stroke:#005500;stroke-width:1.0;"/><line style="stroke:#005500;stroke-width:1.0;" x1="297.5" x2="832.5" y1="372.7578" y2="372.7578"/><text fill="#000000" font-family="sans-serif" font-size="13" lengthAdjust="spacing" textLength="222" x="452" y="367.6919">Return Bundle of Device resources</text><line style="stroke:#005500;stroke-width:1.0;" x1="292.5" x2="334.5" y1="401.8906" y2="401.8906"/><line style="stroke:#005500;stroke-width:1.0;" x1="334.5" x2="334.5" y1="401.8906" y2="414.8906"/><line style="stroke:#005500;stroke-width:1.0;" x1="293.5" x2="334.5" y1="414.8906" y2="414.8906"/><polygon fill="#005500" points="303.5,410.8906,293.5,414.8906,303.5,418.8906,299.5,414.8906" style="stroke:#005500;stroke-width:1.0;"/><text fill="#000000" font-family="sans-serif" font-size="13" lengthAdjust="spacing" textLength="143" x="299.5" y="396.8247">check Bundle.total &gt; 0</text><path d="M207.5,436.8906 L401.5,436.8906 L401.5,443.8906 L391.5,453.8906 L207.5,453.8906 L207.5,436.8906 " fill="#EEEEEE" style="stroke:#000000;stroke-width:1.0;"/><rect fill="none" height="117.5313" style="stroke:#000000;stroke-width:2.0;" width="686.5" x="207.5" y="436.8906"/><text fill="#000000" font-family="sans-serif" font-size="13" font-weight="bold" lengthAdjust="spacing" textLength="149" x="222.5" y="449.9575">search_practitioner</text><polygon fill="#005500" points="816.5,471.1563,826.5,475.1563,816.5,479.1563,820.5,475.1563" style="stroke:#005500;stroke-width:1.0;"/><line style="stroke:#005500;stroke-width:1.0;" x1="292.5" x2="822.5" y1="475.1563" y2="475.1563"/><text fill="#000000" font-family="sans-serif" font-size="13" lengthAdjust="spacing" textLength="300" x="410.5" y="470.0903">FHIR SEARCH Practitioner by identifier attribute</text><polygon fill="#005500" points="303.5,500.2891,293.5,504.2891,303.5,508.2891,299.5,504.2891" style="stroke:#005500;stroke-width:1.0;"/><line style="stroke:#005500;stroke-width:1.0;" x1="297.5" x2="832.5" y1="504.2891" y2="504.2891"/><text fill="#000000" font-family="sans-serif" font-size="13" lengthAdjust="spacing" textLength="222" x="452" y="499.2231">Return Bundle of Device resources</text><line style="stroke:#005500;stroke-width:1.0;" x1="292.5" x2="334.5" y1="533.4219" y2="533.4219"/><line style="stroke:#005500;stroke-width:1.0;" x1="334.5" x2="334.5" y1="533.4219" y2="546.4219"/><line style="stroke:#005500;stroke-width:1.0;" x1="293.5" x2="334.5" y1="546.4219" y2="546.4219"/><polygon fill="#005500" points="303.5,542.4219,293.5,546.4219,303.5,550.4219,299.5,546.4219" style="stroke:#005500;stroke-width:1.0;"/><text fill="#000000" font-family="sans-serif" font-size="13" lengthAdjust="spacing" textLength="143" x="299.5" y="528.356">check Bundle.total &gt; 0</text><path d="M207.5,568.4219 L409.5,568.4219 L409.5,575.4219 L399.5,585.4219 L207.5,585.4219 L207.5,568.4219 " fill="#EEEEEE" style="stroke:#000000;stroke-width:1.0;"/><rect fill="none" height="117.5313" style="stroke:#000000;stroke-width:2.0;" width="686.5" x="207.5" y="568.4219"/><text fill="#000000" font-family="sans-serif" font-size="13" font-weight="bold" lengthAdjust="spacing" textLength="157" x="222.5" y="581.4888">search_imagingstudy</text><polygon fill="#005500" points="816.5,602.6875,826.5,606.6875,816.5,610.6875,820.5,606.6875" style="stroke:#005500;stroke-width:1.0;"/><line style="stroke:#005500;stroke-width:1.0;" x1="292.5" x2="822.5" y1="606.6875" y2="606.6875"/><text fill="#000000" font-family="sans-serif" font-size="13" lengthAdjust="spacing" textLength="315" x="403" y="601.6216">FHIR SEARCH ImagingStudy by identifier attribute</text><polygon fill="#005500" points="303.5,631.8203,293.5,635.8203,303.5,639.8203,299.5,635.8203" style="stroke:#005500;stroke-width:1.0;"/><line style="stroke:#005500;stroke-width:1.0;" x1="297.5" x2="832.5" y1="635.8203" y2="635.8203"/><text fill="#000000" font-family="sans-serif" font-size="13" lengthAdjust="spacing" textLength="266" x="430" y="630.7544">Return Bundle of ImagingStudy resources</text><line style="stroke:#005500;stroke-width:1.0;" x1="292.5" x2="334.5" y1="664.9531" y2="664.9531"/><line style="stroke:#005500;stroke-width:1.0;" x1="334.5" x2="334.5" y1="664.9531" y2="677.9531"/><line style="stroke:#005500;stroke-width:1.0;" x1="293.5" x2="334.5" y1="677.9531" y2="677.9531"/><polygon fill="#005500" points="303.5,673.9531,293.5,677.9531,303.5,681.9531,299.5,677.9531" style="stroke:#005500;stroke-width:1.0;"/><text fill="#000000" font-family="sans-serif" font-size="13" lengthAdjust="spacing" textLength="143" x="299.5" y="659.8872">check Bundle.total &gt; 0</text><path d="M207.5,699.9531 L483.5,699.9531 L483.5,706.9531 L473.5,716.9531 L207.5,716.9531 L207.5,699.9531 " fill="#EEEEEE" style="stroke:#000000;stroke-width:1.0;"/><rect fill="none" height="117.5313" style="stroke:#000000;stroke-width:2.0;" width="686.5" x="207.5" y="699.9531"/><text fill="#000000" font-family="sans-serif" font-size="13" font-weight="bold" lengthAdjust="spacing" textLength="231" x="222.5" y="713.02">search_radiationdosesummary</text><polygon fill="#005500" points="816.5,734.2188,826.5,738.2188,816.5,742.2188,820.5,738.2188" style="stroke:#005500;stroke-width:1.0;"/><line style="stroke:#005500;stroke-width:1.0;" x1="292.5" x2="822.5" y1="738.2188" y2="738.2188"/><text fill="#000000" font-family="sans-serif" font-size="13" lengthAdjust="spacing" textLength="517" x="302" y="733.1528">FHIR SEARCH Radiation Dose Summary by device, patient, and part-of attributes</text><polygon fill="#005500" points="303.5,763.3516,293.5,767.3516,303.5,771.3516,299.5,767.3516" style="stroke:#005500;stroke-width:1.0;"/><line style="stroke:#005500;stroke-width:1.0;" x1="297.5" x2="832.5" y1="767.3516" y2="767.3516"/><text fill="#000000" font-family="sans-serif" font-size="13" lengthAdjust="spacing" textLength="266" x="430" y="762.2856">Return Bundle of ImagingStudy resources</text><line style="stroke:#005500;stroke-width:1.0;" x1="292.5" x2="334.5" y1="796.4844" y2="796.4844"/><line style="stroke:#005500;stroke-width:1.0;" x1="334.5" x2="334.5" y1="796.4844" y2="809.4844"/><line style="stroke:#005500;stroke-width:1.0;" x1="293.5" x2="334.5" y1="809.4844" y2="809.4844"/><polygon fill="#005500" points="303.5,805.4844,293.5,809.4844,303.5,813.4844,299.5,809.4844" style="stroke:#005500;stroke-width:1.0;"/><text fill="#000000" font-family="sans-serif" font-size="13" lengthAdjust="spacing" textLength="143" x="299.5" y="791.4185">check Bundle.total &gt; 0</text><!--MD5=[6115e1807ca5fe10ec3e8b0856a32199]
@startuml
hide footbox
skinparam sequenceMessageAlign center
skinparam sequence {
ArrowColor #005500
LifeLineBorderColor Black
ActorFontColor Black
ActorBorderColor Black
ParticipantBorderColor Black
ParticipantBackgroundColor #c9f4ff
ActorBackgroundColor #c9f4ff
}

participant "Tester" as tester
participant "Verification Script" as verif
participant "FHIR Server" as server

tester -> verif : Provide Patient identifier
tester -> verif : Provide device identifier
tester -> verif : Provide practitioner identifier
tester -> verif : Provide study-instance-uid identifier


group search_patient
  verif -> server : FHIR SEARCH Patient by identifier attribute
  activate server #b3ffd7
  server  -> verif : Return Bundle of Observation resources
  deactivate server

  verif -> verif : check Bundle.total > 0
end

group search_device
  verif -> server : FHIR SEARCH Device by identifier attribute
  activate server #b3ffd7
  server  -> verif : Return Bundle of Device resources
  deactivate server

  verif -> verif : check Bundle.total > 0
end

group search_practitioner
  verif -> server : FHIR SEARCH Practitioner by identifier attribute
  activate server #b3ffd7
  server  -> verif : Return Bundle of Device resources
  deactivate server

  verif -> verif : check Bundle.total > 0
end

group search_imagingstudy
  verif -> server : FHIR SEARCH ImagingStudy by identifier attribute
  activate server #b3ffd7
  server  -> verif : Return Bundle of ImagingStudy resources
  deactivate server

  verif -> verif : check Bundle.total > 0
end

group search_radiationdosesummary
  verif -> server : FHIR SEARCH Radiation Dose Summary by device, patient, and part-of attributes
  activate server #b3ffd7
  server  -> verif : Return Bundle of ImagingStudy resources
  deactivate server

  verif -> verif : check Bundle.total > 0
end
@enduml

PlantUML version 1.2021.10beta3(Unknown compile time)
(GPL source distribution)
Java Runtime: Java(TM) SE Runtime Environment
JVM: Java HotSpot(TM) 64-Bit Server VM
Default Encoding: UTF-8
Language: en
Country: US
--></g></svg>